<svg xmlns="http://www.w3.org/2000/svg" xmlns:xlink="http://www.w3.org/1999/xlink" width="30px" height="30px" viewBox="0 0 30 30" version="1.1">
<defs>
<clipPath id="clip1">
  <path d="M 17 8 L 30 8 L 30 26 L 17 26 Z M 17 8 "/>
</clipPath>
<clipPath id="clip2">
  <path d="M 15.007812 0 C 23.300781 0 30.019531 6.71875 30.019531 15.007812 C 30.019531 23.300781 23.300781 30.019531 15.007812 30.019531 C 6.71875 30.019531 0 23.300781 0 15.007812 C 0 6.71875 6.71875 0 15.007812 0 Z M 15.007812 0 "/>
</clipPath>
<clipPath id="clip3">
  <path d="M 17 9 L 30 9 L 30 26 L 17 26 Z M 17 9 "/>
</clipPath>
<clipPath id="clip4">
  <path d="M 15.007812 0 C 23.300781 0 30.019531 6.71875 30.019531 15.007812 C 30.019531 23.300781 23.300781 30.019531 15.007812 30.019531 C 6.71875 30.019531 0 23.300781 0 15.007812 C 0 6.71875 6.71875 0 15.007812 0 Z M 15.007812 0 "/>
</clipPath>
<clipPath id="clip5">
  <path d="M 16 9 L 30 9 L 30 26 L 16 26 Z M 16 9 "/>
</clipPath>
<clipPath id="clip6">
  <path d="M 15.007812 0 C 23.300781 0 30.019531 6.71875 30.019531 15.007812 C 30.019531 23.300781 23.300781 30.019531 15.007812 30.019531 C 6.71875 30.019531 0 23.300781 0 15.007812 C 0 6.71875 6.71875 0 15.007812 0 Z M 15.007812 0 "/>
</clipPath>
<clipPath id="clip7">
  <path d="M 15 9 L 30 9 L 30 27 L 15 27 Z M 15 9 "/>
</clipPath>
<clipPath id="clip8">
  <path d="M 15.007812 0 C 23.300781 0 30.019531 6.71875 30.019531 15.007812 C 30.019531 23.300781 23.300781 30.019531 15.007812 30.019531 C 6.71875 30.019531 0 23.300781 0 15.007812 C 0 6.71875 6.71875 0 15.007812 0 Z M 15.007812 0 "/>
</clipPath>
<clipPath id="clip9">
  <path d="M 15 9 L 30 9 L 30 28 L 15 28 Z M 15 9 "/>
</clipPath>
<clipPath id="clip10">
  <path d="M 15.007812 0 C 23.300781 0 30.019531 6.71875 30.019531 15.007812 C 30.019531 23.300781 23.300781 30.019531 15.007812 30.019531 C 6.71875 30.019531 0 23.300781 0 15.007812 C 0 6.71875 6.71875 0 15.007812 0 Z M 15.007812 0 "/>
</clipPath>
<clipPath id="clip11">
  <path d="M 16 10 L 30 10 L 30 28 L 16 28 Z M 16 10 "/>
</clipPath>
<clipPath id="clip12">
  <path d="M 15.007812 0 C 23.300781 0 30.019531 6.71875 30.019531 15.007812 C 30.019531 23.300781 23.300781 30.019531 15.007812 30.019531 C 6.71875 30.019531 0 23.300781 0 15.007812 C 0 6.71875 6.71875 0 15.007812 0 Z M 15.007812 0 "/>
</clipPath>
<clipPath id="clip13">
  <path d="M 12 8 L 30 8 L 30 26 L 12 26 Z M 12 8 "/>
</clipPath>
<clipPath id="clip14">
  <path d="M 15.007812 0 C 23.300781 0 30.019531 6.71875 30.019531 15.007812 C 30.019531 23.300781 23.300781 30.019531 15.007812 30.019531 C 6.71875 30.019531 0 23.300781 0 15.007812 C 0 6.71875 6.71875 0 15.007812 0 Z M 15.007812 0 "/>
</clipPath>
<clipPath id="clip15">
  <path d="M 12 9 L 30 9 L 30 26 L 12 26 Z M 12 9 "/>
</clipPath>
<clipPath id="clip16">
  <path d="M 15.007812 0 C 23.300781 0 30.019531 6.71875 30.019531 15.007812 C 30.019531 23.300781 23.300781 30.019531 15.007812 30.019531 C 6.71875 30.019531 0 23.300781 0 15.007812 C 0 6.71875 6.71875 0 15.007812 0 Z M 15.007812 0 "/>
</clipPath>
<clipPath id="clip17">
  <path d="M 16 12 L 30 12 L 30 30 L 16 30 Z M 16 12 "/>
</clipPath>
<clipPath id="clip18">
  <path d="M 15.007812 0 C 23.300781 0 30.019531 6.71875 30.019531 15.007812 C 30.019531 23.300781 23.300781 30.019531 15.007812 30.019531 C 6.71875 30.019531 0 23.300781 0 15.007812 C 0 6.71875 6.71875 0 15.007812 0 Z M 15.007812 0 "/>
</clipPath>
<clipPath id="clip19">
  <path d="M 13 8 L 30 8 L 30 26 L 13 26 Z M 13 8 "/>
</clipPath>
<clipPath id="clip20">
  <path d="M 15.007812 0 C 23.300781 0 30.019531 6.71875 30.019531 15.007812 C 30.019531 23.300781 23.300781 30.019531 15.007812 30.019531 C 6.71875 30.019531 0 23.300781 0 15.007812 C 0 6.71875 6.71875 0 15.007812 0 Z M 15.007812 0 "/>
</clipPath>
<clipPath id="clip21">
  <path d="M 13 8 L 30 8 L 30 27 L 13 27 Z M 13 8 "/>
</clipPath>
<clipPath id="clip22">
  <path d="M 15.007812 0 C 23.300781 0 30.019531 6.71875 30.019531 15.007812 C 30.019531 23.300781 23.300781 30.019531 15.007812 30.019531 C 6.71875 30.019531 0 23.300781 0 15.007812 C 0 6.71875 6.71875 0 15.007812 0 Z M 15.007812 0 "/>
</clipPath>
<clipPath id="clip23">
  <path d="M 22 11 L 30 11 L 30 29 L 22 29 Z M 22 11 "/>
</clipPath>
<clipPath id="clip24">
  <path d="M 15.007812 0 C 23.300781 0 30.019531 6.71875 30.019531 15.007812 C 30.019531 23.300781 23.300781 30.019531 15.007812 30.019531 C 6.71875 30.019531 0 23.300781 0 15.007812 C 0 6.71875 6.71875 0 15.007812 0 Z M 15.007812 0 "/>
</clipPath>
<clipPath id="clip25">
  <path d="M 21 11 L 30 11 L 30 30 L 21 30 Z M 21 11 "/>
</clipPath>
<clipPath id="clip26">
  <path d="M 15.007812 0 C 23.300781 0 30.019531 6.71875 30.019531 15.007812 C 30.019531 23.300781 23.300781 30.019531 15.007812 30.019531 C 6.71875 30.019531 0 23.300781 0 15.007812 C 0 6.71875 6.71875 0 15.007812 0 Z M 15.007812 0 "/>
</clipPath>
<clipPath id="clip27">
  <path d="M 21 12 L 30 12 L 30 30 L 21 30 Z M 21 12 "/>
</clipPath>
<clipPath id="clip28">
  <path d="M 15.007812 0 C 23.300781 0 30.019531 6.71875 30.019531 15.007812 C 30.019531 23.300781 23.300781 30.019531 15.007812 30.019531 C 6.71875 30.019531 0 23.300781 0 15.007812 C 0 6.71875 6.71875 0 15.007812 0 Z M 15.007812 0 "/>
</clipPath>
<clipPath id="clip29">
  <path d="M 20 12 L 30 12 L 30 30 L 20 30 Z M 20 12 "/>
</clipPath>
<clipPath id="clip30">
  <path d="M 15.007812 0 C 23.300781 0 30.019531 6.71875 30.019531 15.007812 C 30.019531 23.300781 23.300781 30.019531 15.007812 30.019531 C 6.71875 30.019531 0 23.300781 0 15.007812 C 0 6.71875 6.71875 0 15.007812 0 Z M 15.007812 0 "/>
</clipPath>
<clipPath id="clip31">
  <path d="M 20 13 L 30 13 L 30 30 L 20 30 Z M 20 13 "/>
</clipPath>
<clipPath id="clip32">
  <path d="M 15.007812 0 C 23.300781 0 30.019531 6.71875 30.019531 15.007812 C 30.019531 23.300781 23.300781 30.019531 15.007812 30.019531 C 6.71875 30.019531 0 23.300781 0 15.007812 C 0 6.71875 6.71875 0 15.007812 0 Z M 15.007812 0 "/>
</clipPath>
<clipPath id="clip33">
  <path d="M 16 11 L 30 11 L 30 30 L 16 30 Z M 16 11 "/>
</clipPath>
<clipPath id="clip34">
  <path d="M 15.007812 0 C 23.300781 0 30.019531 6.71875 30.019531 15.007812 C 30.019531 23.300781 23.300781 30.019531 15.007812 30.019531 C 6.71875 30.019531 0 23.300781 0 15.007812 C 0 6.71875 6.71875 0 15.007812 0 Z M 15.007812 0 "/>
</clipPath>
<clipPath id="clip35">
  <path d="M 12 9 L 30 9 L 30 26 L 12 26 Z M 12 9 "/>
</clipPath>
<clipPath id="clip36">
  <path d="M 15.007812 0 C 23.300781 0 30.019531 6.71875 30.019531 15.007812 C 30.019531 23.300781 23.300781 30.019531 15.007812 30.019531 C 6.71875 30.019531 0 23.300781 0 15.007812 C 0 6.71875 6.71875 0 15.007812 0 Z M 15.007812 0 "/>
</clipPath>
<clipPath id="clip37">
  <path d="M 12 8 L 30 8 L 30 26 L 12 26 Z M 12 8 "/>
</clipPath>
<clipPath id="clip38">
  <path d="M 15.007812 0 C 23.300781 0 30.019531 6.71875 30.019531 15.007812 C 30.019531 23.300781 23.300781 30.019531 15.007812 30.019531 C 6.71875 30.019531 0 23.300781 0 15.007812 C 0 6.71875 6.71875 0 15.007812 0 Z M 15.007812 0 "/>
</clipPath>
<clipPath id="clip39">
  <path d="M 18 15 L 30 15 L 30 30 L 18 30 Z M 18 15 "/>
</clipPath>
<clipPath id="clip40">
  <path d="M 15.007812 0 C 23.300781 0 30.019531 6.71875 30.019531 15.007812 C 30.019531 23.300781 23.300781 30.019531 15.007812 30.019531 C 6.71875 30.019531 0 23.300781 0 15.007812 C 0 6.71875 6.71875 0 15.007812 0 Z M 15.007812 0 "/>
</clipPath>
<clipPath id="clip41">
  <path d="M 23 15 L 30 15 L 30 30 L 23 30 Z M 23 15 "/>
</clipPath>
<clipPath id="clip42">
  <path d="M 15.007812 0 C 23.300781 0 30.019531 6.71875 30.019531 15.007812 C 30.019531 23.300781 23.300781 30.019531 15.007812 30.019531 C 6.71875 30.019531 0 23.300781 0 15.007812 C 0 6.71875 6.71875 0 15.007812 0 Z M 15.007812 0 "/>
</clipPath>
<clipPath id="clip43">
  <path d="M 16 12 L 30 12 L 30 30 L 16 30 Z M 16 12 "/>
</clipPath>
<clipPath id="clip44">
  <path d="M 15.007812 0 C 23.300781 0 30.019531 6.71875 30.019531 15.007812 C 30.019531 23.300781 23.300781 30.019531 15.007812 30.019531 C 6.71875 30.019531 0 23.300781 0 15.007812 C 0 6.71875 6.71875 0 15.007812 0 Z M 15.007812 0 "/>
</clipPath>
<clipPath id="clip45">
  <path d="M 18 13 L 30 13 L 30 30 L 18 30 Z M 18 13 "/>
</clipPath>
<clipPath id="clip46">
  <path d="M 15.007812 0 C 23.300781 0 30.019531 6.71875 30.019531 15.007812 C 30.019531 23.300781 23.300781 30.019531 15.007812 30.019531 C 6.71875 30.019531 0 23.300781 0 15.007812 C 0 6.71875 6.71875 0 15.007812 0 Z M 15.007812 0 "/>
</clipPath>
<clipPath id="clip47">
  <path d="M 12 9 L 30 9 L 30 26 L 12 26 Z M 12 9 "/>
</clipPath>
<clipPath id="clip48">
  <path d="M 15.007812 0 C 23.300781 0 30.019531 6.71875 30.019531 15.007812 C 30.019531 23.300781 23.300781 30.019531 15.007812 30.019531 C 6.71875 30.019531 0 23.300781 0 15.007812 C 0 6.71875 6.71875 0 15.007812 0 Z M 15.007812 0 "/>
</clipPath>
<clipPath id="clip49">
  <path d="M 18 17 L 30 17 L 30 30 L 18 30 Z M 18 17 "/>
</clipPath>
<clipPath id="clip50">
  <path d="M 15.007812 0 C 23.300781 0 30.019531 6.71875 30.019531 15.007812 C 30.019531 23.300781 23.300781 30.019531 15.007812 30.019531 C 6.71875 30.019531 0 23.300781 0 15.007812 C 0 6.71875 6.71875 0 15.007812 0 Z M 15.007812 0 "/>
</clipPath>
<clipPath id="clip51">
  <path d="M 13 12 L 30 12 L 30 30 L 13 30 Z M 13 12 "/>
</clipPath>
<clipPath id="clip52">
  <path d="M 15.007812 0 C 23.300781 0 30.019531 6.71875 30.019531 15.007812 C 30.019531 23.300781 23.300781 30.019531 15.007812 30.019531 C 6.71875 30.019531 0 23.300781 0 15.007812 C 0 6.71875 6.71875 0 15.007812 0 Z M 15.007812 0 "/>
</clipPath>
<clipPath id="clip53">
  <path d="M 18 17 L 30 17 L 30 30 L 18 30 Z M 18 17 "/>
</clipPath>
<clipPath id="clip54">
  <path d="M 15.007812 0 C 23.300781 0 30.019531 6.71875 30.019531 15.007812 C 30.019531 23.300781 23.300781 30.019531 15.007812 30.019531 C 6.71875 30.019531 0 23.300781 0 15.007812 C 0 6.71875 6.71875 0 15.007812 0 Z M 15.007812 0 "/>
</clipPath>
<clipPath id="clip55">
  <path d="M 20 19 L 30 19 L 30 30 L 20 30 Z M 20 19 "/>
</clipPath>
<clipPath id="clip56">
  <path d="M 15.007812 0 C 23.300781 0 30.019531 6.71875 30.019531 15.007812 C 30.019531 23.300781 23.300781 30.019531 15.007812 30.019531 C 6.71875 30.019531 0 23.300781 0 15.007812 C 0 6.71875 6.71875 0 15.007812 0 Z M 15.007812 0 "/>
</clipPath>
<clipPath id="clip57">
  <path d="M 18 18 L 30 18 L 30 30 L 18 30 Z M 18 18 "/>
</clipPath>
<clipPath id="clip58">
  <path d="M 15.007812 0 C 23.300781 0 30.019531 6.71875 30.019531 15.007812 C 30.019531 23.300781 23.300781 30.019531 15.007812 30.019531 C 6.71875 30.019531 0 23.300781 0 15.007812 C 0 6.71875 6.71875 0 15.007812 0 Z M 15.007812 0 "/>
</clipPath>
<clipPath id="clip59">
  <path d="M 17 18 L 30 18 L 30 30 L 17 30 Z M 17 18 "/>
</clipPath>
<clipPath id="clip60">
  <path d="M 15.007812 0 C 23.300781 0 30.019531 6.71875 30.019531 15.007812 C 30.019531 23.300781 23.300781 30.019531 15.007812 30.019531 C 6.71875 30.019531 0 23.300781 0 15.007812 C 0 6.71875 6.71875 0 15.007812 0 Z M 15.007812 0 "/>
</clipPath>
<clipPath id="clip61">
  <path d="M 21 21 L 30 21 L 30 30 L 21 30 Z M 21 21 "/>
</clipPath>
<clipPath id="clip62">
  <path d="M 15.007812 0 C 23.300781 0 30.019531 6.71875 30.019531 15.007812 C 30.019531 23.300781 23.300781 30.019531 15.007812 30.019531 C 6.71875 30.019531 0 23.300781 0 15.007812 C 0 6.71875 6.71875 0 15.007812 0 Z M 15.007812 0 "/>
</clipPath>
<clipPath id="clip63">
  <path d="M 21 20 L 30 20 L 30 30 L 21 30 Z M 21 20 "/>
</clipPath>
<clipPath id="clip64">
  <path d="M 15.007812 0 C 23.300781 0 30.019531 6.71875 30.019531 15.007812 C 30.019531 23.300781 23.300781 30.019531 15.007812 30.019531 C 6.71875 30.019531 0 23.300781 0 15.007812 C 0 6.71875 6.71875 0 15.007812 0 Z M 15.007812 0 "/>
</clipPath>
<clipPath id="clip65">
  <path d="M 21 21 L 30 21 L 30 30 L 21 30 Z M 21 21 "/>
</clipPath>
<clipPath id="clip66">
  <path d="M 15.007812 0 C 23.300781 0 30.019531 6.71875 30.019531 15.007812 C 30.019531 23.300781 23.300781 30.019531 15.007812 30.019531 C 6.71875 30.019531 0 23.300781 0 15.007812 C 0 6.71875 6.71875 0 15.007812 0 Z M 15.007812 0 "/>
</clipPath>
<clipPath id="clip67">
  <path d="M 8 11 L 25 11 L 25 29 L 8 29 Z M 8 11 "/>
</clipPath>
<clipPath id="clip68">
  <path d="M 15.007812 0 C 23.300781 0 30.019531 6.71875 30.019531 15.007812 C 30.019531 23.300781 23.300781 30.019531 15.007812 30.019531 C 6.71875 30.019531 0 23.300781 0 15.007812 C 0 6.71875 6.71875 0 15.007812 0 Z M 15.007812 0 "/>
</clipPath>
<clipPath id="clip69">
  <path d="M 9 17 L 28 17 L 28 30 L 9 30 Z M 9 17 "/>
</clipPath>
<clipPath id="clip70">
  <path d="M 15.007812 0 C 23.300781 0 30.019531 6.71875 30.019531 15.007812 C 30.019531 23.300781 23.300781 30.019531 15.007812 30.019531 C 6.71875 30.019531 0 23.300781 0 15.007812 C 0 6.71875 6.71875 0 15.007812 0 Z M 15.007812 0 "/>
</clipPath>
<clipPath id="clip71">
  <path d="M 6 15 L 24 15 L 24 30 L 6 30 Z M 6 15 "/>
</clipPath>
<clipPath id="clip72">
  <path d="M 15.007812 0 C 23.300781 0 30.019531 6.71875 30.019531 15.007812 C 30.019531 23.300781 23.300781 30.019531 15.007812 30.019531 C 6.71875 30.019531 0 23.300781 0 15.007812 C 0 6.71875 6.71875 0 15.007812 0 Z M 15.007812 0 "/>
</clipPath>
<clipPath id="clip73">
  <path d="M 6 15 L 25 15 L 25 30 L 6 30 Z M 6 15 "/>
</clipPath>
<clipPath id="clip74">
  <path d="M 15.007812 0 C 23.300781 0 30.019531 6.71875 30.019531 15.007812 C 30.019531 23.300781 23.300781 30.019531 15.007812 30.019531 C 6.71875 30.019531 0 23.300781 0 15.007812 C 0 6.71875 6.71875 0 15.007812 0 Z M 15.007812 0 "/>
</clipPath>
<clipPath id="clip75">
  <path d="M 9 19 L 27 19 L 27 30 L 9 30 Z M 9 19 "/>
</clipPath>
<clipPath id="clip76">
  <path d="M 15.007812 0 C 23.300781 0 30.019531 6.71875 30.019531 15.007812 C 30.019531 23.300781 23.300781 30.019531 15.007812 30.019531 C 6.71875 30.019531 0 23.300781 0 15.007812 C 0 6.71875 6.71875 0 15.007812 0 Z M 15.007812 0 "/>
</clipPath>
<clipPath id="clip77">
  <path d="M 8 20 L 26 20 L 26 30 L 8 30 Z M 8 20 "/>
</clipPath>
<clipPath id="clip78">
  <path d="M 15.007812 0 C 23.300781 0 30.019531 6.71875 30.019531 15.007812 C 30.019531 23.300781 23.300781 30.019531 15.007812 30.019531 C 6.71875 30.019531 0 23.300781 0 15.007812 C 0 6.71875 6.71875 0 15.007812 0 Z M 15.007812 0 "/>
</clipPath>
<clipPath id="clip79">
  <path d="M 8 21 L 26 21 L 26 30 L 8 30 Z M 8 21 "/>
</clipPath>
<clipPath id="clip80">
  <path d="M 15.007812 0 C 23.300781 0 30.019531 6.71875 30.019531 15.007812 C 30.019531 23.300781 23.300781 30.019531 15.007812 30.019531 C 6.71875 30.019531 0 23.300781 0 15.007812 C 0 6.71875 6.71875 0 15.007812 0 Z M 15.007812 0 "/>
</clipPath>
<clipPath id="clip81">
  <path d="M 8 20 L 26 20 L 26 30 L 8 30 Z M 8 20 "/>
</clipPath>
<clipPath id="clip82">
  <path d="M 15.007812 0 C 23.300781 0 30.019531 6.71875 30.019531 15.007812 C 30.019531 23.300781 23.300781 30.019531 15.007812 30.019531 C 6.71875 30.019531 0 23.300781 0 15.007812 C 0 6.71875 6.71875 0 15.007812 0 Z M 15.007812 0 "/>
</clipPath>
<clipPath id="clip83">
  <path d="M 8 12 L 26 12 L 26 30 L 8 30 Z M 8 12 "/>
</clipPath>
<clipPath id="clip84">
  <path d="M 15.007812 0 C 23.300781 0 30.019531 6.71875 30.019531 15.007812 C 30.019531 23.300781 23.300781 30.019531 15.007812 30.019531 C 6.71875 30.019531 0 23.300781 0 15.007812 C 0 6.71875 6.71875 0 15.007812 0 Z M 15.007812 0 "/>
</clipPath>
<clipPath id="clip85">
  <path d="M 7 16 L 25 16 L 25 30 L 7 30 Z M 7 16 "/>
</clipPath>
<clipPath id="clip86">
  <path d="M 15.007812 0 C 23.300781 0 30.019531 6.71875 30.019531 15.007812 C 30.019531 23.300781 23.300781 30.019531 15.007812 30.019531 C 6.71875 30.019531 0 23.300781 0 15.007812 C 0 6.71875 6.71875 0 15.007812 0 Z M 15.007812 0 "/>
</clipPath>
<clipPath id="clip87">
  <path d="M 7 16 L 26 16 L 26 30 L 7 30 Z M 7 16 "/>
</clipPath>
<clipPath id="clip88">
  <path d="M 15.007812 0 C 23.300781 0 30.019531 6.71875 30.019531 15.007812 C 30.019531 23.300781 23.300781 30.019531 15.007812 30.019531 C 6.71875 30.019531 0 23.300781 0 15.007812 C 0 6.71875 6.71875 0 15.007812 0 Z M 15.007812 0 "/>
</clipPath>
<clipPath id="clip89">
  <path d="M 9 16 L 26 16 L 26 30 L 9 30 Z M 9 16 "/>
</clipPath>
<clipPath id="clip90">
  <path d="M 15.007812 0 C 23.300781 0 30.019531 6.71875 30.019531 15.007812 C 30.019531 23.300781 23.300781 30.019531 15.007812 30.019531 C 6.71875 30.019531 0 23.300781 0 15.007812 C 0 6.71875 6.71875 0 15.007812 0 Z M 15.007812 0 "/>
</clipPath>
<clipPath id="clip91">
  <path d="M 9 18 L 29 18 L 29 30 L 9 30 Z M 9 18 "/>
</clipPath>
<clipPath id="clip92">
  <path d="M 15.007812 0 C 23.300781 0 30.019531 6.71875 30.019531 15.007812 C 30.019531 23.300781 23.300781 30.019531 15.007812 30.019531 C 6.71875 30.019531 0 23.300781 0 15.007812 C 0 6.71875 6.71875 0 15.007812 0 Z M 15.007812 0 "/>
</clipPath>
<clipPath id="clip93">
  <path d="M 13 21 L 30 21 L 30 30 L 13 30 Z M 13 21 "/>
</clipPath>
<clipPath id="clip94">
  <path d="M 15.007812 0 C 23.300781 0 30.019531 6.71875 30.019531 15.007812 C 30.019531 23.300781 23.300781 30.019531 15.007812 30.019531 C 6.71875 30.019531 0 23.300781 0 15.007812 C 0 6.71875 6.71875 0 15.007812 0 Z M 15.007812 0 "/>
</clipPath>
<clipPath id="clip95">
  <path d="M 9 14 L 27 14 L 27 30 L 9 30 Z M 9 14 "/>
</clipPath>
<clipPath id="clip96">
  <path d="M 15.007812 0 C 23.300781 0 30.019531 6.71875 30.019531 15.007812 C 30.019531 23.300781 23.300781 30.019531 15.007812 30.019531 C 6.71875 30.019531 0 23.300781 0 15.007812 C 0 6.71875 6.71875 0 15.007812 0 Z M 15.007812 0 "/>
</clipPath>
<clipPath id="clip97">
  <path d="M 8 12 L 25 12 L 25 30 L 8 30 Z M 8 12 "/>
</clipPath>
<clipPath id="clip98">
  <path d="M 15.007812 0 C 23.300781 0 30.019531 6.71875 30.019531 15.007812 C 30.019531 23.300781 23.300781 30.019531 15.007812 30.019531 C 6.71875 30.019531 0 23.300781 0 15.007812 C 0 6.71875 6.71875 0 15.007812 0 Z M 15.007812 0 "/>
</clipPath>
<clipPath id="clip99">
  <path d="M 8 11 L 26 11 L 26 30 L 8 30 Z M 8 11 "/>
</clipPath>
<clipPath id="clip100">
  <path d="M 15.007812 0 C 23.300781 0 30.019531 6.71875 30.019531 15.007812 C 30.019531 23.300781 23.300781 30.019531 15.007812 30.019531 C 6.71875 30.019531 0 23.300781 0 15.007812 C 0 6.71875 6.71875 0 15.007812 0 Z M 15.007812 0 "/>
</clipPath>
<clipPath id="clip101">
  <path d="M 9 14 L 28 14 L 28 30 L 9 30 Z M 9 14 "/>
</clipPath>
<clipPath id="clip102">
  <path d="M 15.007812 0 C 23.300781 0 30.019531 6.71875 30.019531 15.007812 C 30.019531 23.300781 23.300781 30.019531 15.007812 30.019531 C 6.71875 30.019531 0 23.300781 0 15.007812 C 0 6.71875 6.71875 0 15.007812 0 Z M 15.007812 0 "/>
</clipPath>
<clipPath id="clip103">
  <path d="M 17 19 L 30 19 L 30 30 L 17 30 Z M 17 19 "/>
</clipPath>
<clipPath id="clip104">
  <path d="M 15.007812 0 C 23.300781 0 30.019531 6.71875 30.019531 15.007812 C 30.019531 23.300781 23.300781 30.019531 15.007812 30.019531 C 6.71875 30.019531 0 23.300781 0 15.007812 C 0 6.71875 6.71875 0 15.007812 0 Z M 15.007812 0 "/>
</clipPath>
<clipPath id="clip105">
  <path d="M 15 20 L 30 20 L 30 30 L 15 30 Z M 15 20 "/>
</clipPath>
<clipPath id="clip106">
  <path d="M 15.007812 0 C 23.300781 0 30.019531 6.71875 30.019531 15.007812 C 30.019531 23.300781 23.300781 30.019531 15.007812 30.019531 C 6.71875 30.019531 0 23.300781 0 15.007812 C 0 6.71875 6.71875 0 15.007812 0 Z M 15.007812 0 "/>
</clipPath>
<clipPath id="clip107">
  <path d="M 20 19 L 30 19 L 30 30 L 20 30 Z M 20 19 "/>
</clipPath>
<clipPath id="clip108">
  <path d="M 15.007812 0 C 23.300781 0 30.019531 6.71875 30.019531 15.007812 C 30.019531 23.300781 23.300781 30.019531 15.007812 30.019531 C 6.71875 30.019531 0 23.300781 0 15.007812 C 0 6.71875 6.71875 0 15.007812 0 Z M 15.007812 0 "/>
</clipPath>
<clipPath id="clip109">
  <path d="M 18 14 L 30 14 L 30 30 L 18 30 Z M 18 14 "/>
</clipPath>
<clipPath id="clip110">
  <path d="M 15.007812 0 C 23.300781 0 30.019531 6.71875 30.019531 15.007812 C 30.019531 23.300781 23.300781 30.019531 15.007812 30.019531 C 6.71875 30.019531 0 23.300781 0 15.007812 C 0 6.71875 6.71875 0 15.007812 0 Z M 15.007812 0 "/>
</clipPath>
<clipPath id="clip111">
  <path d="M 18 15 L 30 15 L 30 30 L 18 30 Z M 18 15 "/>
</clipPath>
<clipPath id="clip112">
  <path d="M 15.007812 0 C 23.300781 0 30.019531 6.71875 30.019531 15.007812 C 30.019531 23.300781 23.300781 30.019531 15.007812 30.019531 C 6.71875 30.019531 0 23.300781 0 15.007812 C 0 6.71875 6.71875 0 15.007812 0 Z M 15.007812 0 "/>
</clipPath>
<clipPath id="clip113">
  <path d="M 20 16 L 30 16 L 30 30 L 20 30 Z M 20 16 "/>
</clipPath>
<clipPath id="clip114">
  <path d="M 15.007812 0 C 23.300781 0 30.019531 6.71875 30.019531 15.007812 C 30.019531 23.300781 23.300781 30.019531 15.007812 30.019531 C 6.71875 30.019531 0 23.300781 0 15.007812 C 0 6.71875 6.71875 0 15.007812 0 Z M 15.007812 0 "/>
</clipPath>
<clipPath id="clip115">
  <path d="M 22 16 L 30 16 L 30 30 L 22 30 Z M 22 16 "/>
</clipPath>
<clipPath id="clip116">
  <path d="M 15.007812 0 C 23.300781 0 30.019531 6.71875 30.019531 15.007812 C 30.019531 23.300781 23.300781 30.019531 15.007812 30.019531 C 6.71875 30.019531 0 23.300781 0 15.007812 C 0 6.71875 6.71875 0 15.007812 0 Z M 15.007812 0 "/>
</clipPath>
<clipPath id="clip117">
  <path d="M 21 16 L 30 16 L 30 30 L 21 30 Z M 21 16 "/>
</clipPath>
<clipPath id="clip118">
  <path d="M 15.007812 0 C 23.300781 0 30.019531 6.71875 30.019531 15.007812 C 30.019531 23.300781 23.300781 30.019531 15.007812 30.019531 C 6.71875 30.019531 0 23.300781 0 15.007812 C 0 6.71875 6.71875 0 15.007812 0 Z M 15.007812 0 "/>
</clipPath>
<clipPath id="clip119">
  <path d="M 22 15 L 30 15 L 30 30 L 22 30 Z M 22 15 "/>
</clipPath>
<clipPath id="clip120">
  <path d="M 15.007812 0 C 23.300781 0 30.019531 6.71875 30.019531 15.007812 C 30.019531 23.300781 23.300781 30.019531 15.007812 30.019531 C 6.71875 30.019531 0 23.300781 0 15.007812 C 0 6.71875 6.71875 0 15.007812 0 Z M 15.007812 0 "/>
</clipPath>
<clipPath id="clip121">
  <path d="M 6 8 L 24 8 L 24 22 L 6 22 Z M 6 8 "/>
</clipPath>
<clipPath id="clip122">
  <path d="M 15.007812 0 C 23.300781 0 30.019531 6.71875 30.019531 15.007812 C 30.019531 23.300781 23.300781 30.019531 15.007812 30.019531 C 6.71875 30.019531 0 23.300781 0 15.007812 C 0 6.71875 6.71875 0 15.007812 0 Z M 15.007812 0 "/>
</clipPath>
</defs>
<g id="surface1">
<path style=" stroke:none;fill-rule:evenodd;fill:rgb(1.176471%,60.784314%,89.803922%);fill-opacity:1;" d="M 15.007812 0 C 23.300781 0 30.019531 6.71875 30.019531 15.007812 C 30.019531 23.300781 23.300781 30.019531 15.007812 30.019531 C 6.71875 30.019531 0 23.300781 0 15.007812 C 0 6.71875 6.71875 0 15.007812 0 Z M 15.007812 0 "/>
<g clip-path="url(#clip1)" clip-rule="nonzero">
<g clip-path="url(#clip2)" clip-rule="evenodd">
<path style=" stroke:none;fill-rule:evenodd;fill:rgb(0.784314%,46.666667%,74.117647%);fill-opacity:1;" d="M 17.914062 8.351562 L 34.5625 25.003906 L 33.769531 25.742188 L 17.117188 9.089844 Z M 17.914062 8.351562 "/>
</g>
</g>
<g clip-path="url(#clip3)" clip-rule="nonzero">
<g clip-path="url(#clip4)" clip-rule="evenodd">
<path style=" stroke:none;fill-rule:evenodd;fill:rgb(0.784314%,46.666667%,74.117647%);fill-opacity:1;" d="M 17.117188 9.089844 L 33.769531 25.742188 L 33.726562 25.777344 L 17.078125 9.128906 Z M 17.117188 9.089844 "/>
<path style=" stroke:none;fill-rule:evenodd;fill:rgb(0.784314%,46.666667%,74.117647%);fill-opacity:1;" d="M 17.078125 9.128906 L 33.726562 25.777344 L 33.6875 25.777344 L 17.039062 9.125 Z M 17.078125 9.128906 "/>
</g>
</g>
<g clip-path="url(#clip5)" clip-rule="nonzero">
<g clip-path="url(#clip6)" clip-rule="evenodd">
<path style=" stroke:none;fill-rule:evenodd;fill:rgb(0.784314%,46.666667%,74.117647%);fill-opacity:1;" d="M 17.039062 9.125 L 33.6875 25.777344 L 32.839844 25.734375 L 16.191406 9.082031 Z M 17.039062 9.125 "/>
</g>
</g>
<g clip-path="url(#clip7)" clip-rule="nonzero">
<g clip-path="url(#clip8)" clip-rule="evenodd">
<path style=" stroke:none;fill-rule:evenodd;fill:rgb(0.784314%,46.666667%,74.117647%);fill-opacity:1;" d="M 16.191406 9.082031 L 32.839844 25.734375 L 32.289062 26.363281 L 15.640625 9.714844 Z M 16.191406 9.082031 "/>
</g>
</g>
<g clip-path="url(#clip9)" clip-rule="nonzero">
<g clip-path="url(#clip10)" clip-rule="evenodd">
<path style=" stroke:none;fill-rule:evenodd;fill:rgb(0.784314%,46.666667%,74.117647%);fill-opacity:1;" d="M 15.792969 9.851562 L 32.457031 26.515625 L 32.46875 26.53125 L 32.484375 26.550781 L 32.496094 26.566406 L 32.511719 26.585938 L 32.523438 26.601562 L 32.570312 26.679688 L 32.582031 26.695312 L 32.59375 26.71875 L 32.601562 26.738281 L 32.613281 26.757812 L 32.628906 26.796875 L 32.636719 26.820312 L 32.652344 26.859375 L 32.660156 26.882812 L 32.664062 26.902344 L 32.671875 26.925781 L 32.675781 26.949219 L 32.679688 26.96875 L 32.695312 27.0625 L 32.695312 27.109375 L 32.699219 27.132812 L 16.046875 10.480469 L 16.046875 10.433594 L 16.042969 10.410156 L 16.042969 10.386719 L 16.039062 10.367188 L 16.027344 10.296875 L 16.019531 10.277344 L 16.015625 10.253906 L 16.007812 10.234375 L 16.003906 10.210938 L 15.996094 10.191406 L 15.988281 10.167969 L 15.972656 10.128906 L 15.960938 10.105469 L 15.953125 10.085938 L 15.941406 10.066406 L 15.933594 10.046875 L 15.898438 9.988281 L 15.886719 9.972656 L 15.875 9.953125 L 15.859375 9.933594 L 15.847656 9.917969 L 15.835938 9.898438 L 15.804688 9.867188 Z M 15.792969 9.851562 "/>
</g>
</g>
<g clip-path="url(#clip11)" clip-rule="nonzero">
<g clip-path="url(#clip12)" clip-rule="evenodd">
<path style=" stroke:none;fill-rule:evenodd;fill:rgb(0.784314%,46.666667%,74.117647%);fill-opacity:1;" d="M 16.585938 10.84375 L 33.234375 27.496094 L 33.257812 27.519531 L 33.28125 27.546875 L 33.300781 27.570312 L 33.320312 27.597656 L 33.34375 27.625 L 33.359375 27.652344 L 33.378906 27.683594 L 33.398438 27.710938 L 33.414062 27.742188 L 33.429688 27.769531 L 33.492188 27.894531 L 16.839844 11.246094 L 16.828125 11.210938 L 16.8125 11.179688 L 16.796875 11.152344 L 16.765625 11.089844 L 16.746094 11.0625 L 16.730469 11.03125 L 16.652344 10.921875 L 16.628906 10.894531 L 16.609375 10.871094 Z M 16.585938 10.84375 "/>
</g>
</g>
<g clip-path="url(#clip13)" clip-rule="nonzero">
<g clip-path="url(#clip14)" clip-rule="evenodd">
<path style=" stroke:none;fill-rule:evenodd;fill:rgb(0.784314%,46.666667%,74.117647%);fill-opacity:1;" d="M 12.480469 8.046875 L 29.128906 24.695312 L 29.679688 25.578125 L 13.027344 8.925781 Z M 12.480469 8.046875 "/>
</g>
</g>
<g clip-path="url(#clip15)" clip-rule="nonzero">
<g clip-path="url(#clip16)" clip-rule="evenodd">
<path style=" stroke:none;fill-rule:evenodd;fill:rgb(0.784314%,46.666667%,74.117647%);fill-opacity:1;" d="M 13.828125 9.082031 L 30.480469 25.734375 L 29.632812 25.777344 L 12.980469 9.125 Z M 13.828125 9.082031 "/>
</g>
</g>
<g clip-path="url(#clip17)" clip-rule="nonzero">
<g clip-path="url(#clip18)" clip-rule="evenodd">
<path style=" stroke:none;fill-rule:evenodd;fill:rgb(0.784314%,46.666667%,74.117647%);fill-opacity:1;" d="M 16.957031 12.679688 L 33.605469 29.328125 L 33.589844 29.328125 L 16.941406 12.679688 Z M 16.957031 12.679688 "/>
</g>
</g>
<g clip-path="url(#clip19)" clip-rule="nonzero">
<g clip-path="url(#clip20)" clip-rule="evenodd">
<path style=" stroke:none;fill-rule:evenodd;fill:rgb(0.784314%,46.666667%,74.117647%);fill-opacity:1;" d="M 13.914062 8.882812 L 30.566406 25.53125 L 30.597656 25.570312 L 13.945312 8.917969 Z M 13.914062 8.882812 "/>
</g>
</g>
<g clip-path="url(#clip21)" clip-rule="nonzero">
<g clip-path="url(#clip22)" clip-rule="evenodd">
<path style=" stroke:none;fill-rule:evenodd;fill:rgb(0.784314%,46.666667%,74.117647%);fill-opacity:1;" d="M 13.945312 8.917969 L 30.597656 25.570312 L 31.203125 26.261719 L 14.550781 9.613281 Z M 13.945312 8.917969 "/>
</g>
</g>
<g clip-path="url(#clip23)" clip-rule="nonzero">
<g clip-path="url(#clip24)" clip-rule="evenodd">
<path style=" stroke:none;fill-rule:evenodd;fill:rgb(0.784314%,46.666667%,74.117647%);fill-opacity:1;" d="M 22.054688 11.4375 L 38.703125 28.085938 L 38.710938 28.097656 L 38.71875 28.113281 L 38.722656 28.128906 L 38.722656 28.144531 L 38.71875 28.160156 L 22.070312 11.511719 L 22.070312 11.476562 L 22.066406 11.464844 L 22.0625 11.449219 Z M 22.054688 11.4375 "/>
</g>
</g>
<g clip-path="url(#clip25)" clip-rule="nonzero">
<g clip-path="url(#clip26)" clip-rule="evenodd">
<path style=" stroke:none;fill-rule:evenodd;fill:rgb(0.784314%,46.666667%,74.117647%);fill-opacity:1;" d="M 22.070312 11.511719 L 38.71875 28.160156 L 38.40625 29.257812 L 21.757812 12.609375 Z M 22.070312 11.511719 "/>
</g>
</g>
<g clip-path="url(#clip27)" clip-rule="nonzero">
<g clip-path="url(#clip28)" clip-rule="evenodd">
<path style=" stroke:none;fill-rule:evenodd;fill:rgb(0.784314%,46.666667%,74.117647%);fill-opacity:1;" d="M 21.757812 12.609375 L 38.40625 29.257812 L 38.429688 29.289062 L 38.433594 29.304688 L 38.441406 29.320312 L 38.445312 29.335938 L 38.449219 29.355469 L 38.449219 29.390625 L 38.441406 29.421875 L 38.433594 29.4375 L 38.429688 29.453125 L 38.417969 29.46875 L 38.410156 29.484375 L 38.382812 29.511719 L 21.734375 12.859375 L 21.757812 12.835938 L 21.769531 12.820312 L 21.792969 12.773438 L 21.796875 12.757812 L 21.796875 12.6875 L 21.792969 12.671875 L 21.769531 12.625 Z M 21.757812 12.609375 "/>
</g>
</g>
<g clip-path="url(#clip29)" clip-rule="nonzero">
<g clip-path="url(#clip30)" clip-rule="evenodd">
<path style=" stroke:none;fill-rule:evenodd;fill:rgb(0.784314%,46.666667%,74.117647%);fill-opacity:1;" d="M 21.734375 12.859375 L 38.382812 29.511719 L 37.398438 30.339844 L 20.746094 13.6875 Z M 21.734375 12.859375 "/>
</g>
</g>
<g clip-path="url(#clip31)" clip-rule="nonzero">
<g clip-path="url(#clip32)" clip-rule="evenodd">
<path style=" stroke:none;fill-rule:evenodd;fill:rgb(0.784314%,46.666667%,74.117647%);fill-opacity:1;" d="M 20.746094 13.6875 L 37.398438 30.339844 L 37.398438 30.425781 L 37.394531 30.453125 L 37.378906 30.507812 L 37.367188 30.53125 L 37.355469 30.558594 L 37.34375 30.582031 L 37.324219 30.605469 L 37.308594 30.628906 L 37.289062 30.648438 L 37.265625 30.667969 L 37.242188 30.683594 L 37.214844 30.699219 L 37.191406 30.714844 L 20.539062 14.066406 L 20.59375 14.035156 L 20.617188 14.019531 L 20.636719 14 L 20.65625 13.976562 L 20.675781 13.957031 L 20.707031 13.910156 L 20.730469 13.855469 L 20.746094 13.800781 L 20.75 13.773438 L 20.75 13.71875 Z M 20.746094 13.6875 "/>
</g>
</g>
<g clip-path="url(#clip33)" clip-rule="nonzero">
<g clip-path="url(#clip34)" clip-rule="evenodd">
<path style=" stroke:none;fill-rule:evenodd;fill:rgb(0.784314%,46.666667%,74.117647%);fill-opacity:1;" d="M 16.839844 11.246094 L 33.492188 27.894531 L 33.503906 27.929688 L 33.519531 27.960938 L 33.554688 28.066406 L 33.566406 28.105469 L 33.582031 28.175781 L 33.59375 28.214844 L 33.601562 28.253906 L 33.605469 28.289062 L 33.621094 28.367188 L 33.628906 28.445312 L 33.632812 28.488281 L 33.636719 28.527344 L 33.640625 28.570312 L 33.640625 28.609375 L 33.644531 28.652344 L 33.644531 28.863281 L 33.640625 28.910156 L 33.640625 28.953125 L 33.636719 28.996094 L 33.632812 29.042969 L 33.628906 29.085938 L 33.621094 29.179688 L 16.972656 12.527344 L 16.976562 12.484375 L 16.984375 12.390625 L 16.988281 12.347656 L 16.988281 12.304688 L 16.992188 12.257812 L 16.992188 12.214844 L 16.996094 12.171875 L 16.996094 12.042969 L 16.992188 12 L 16.992188 11.960938 L 16.988281 11.917969 L 16.988281 11.878906 L 16.984375 11.835938 L 16.976562 11.757812 L 16.96875 11.71875 L 16.964844 11.679688 L 16.949219 11.601562 L 16.941406 11.566406 L 16.933594 11.527344 L 16.925781 11.492188 L 16.914062 11.453125 L 16.90625 11.417969 L 16.882812 11.347656 L 16.867188 11.3125 L 16.855469 11.277344 Z M 16.839844 11.246094 "/>
</g>
</g>
<g clip-path="url(#clip35)" clip-rule="nonzero">
<g clip-path="url(#clip36)" clip-rule="evenodd">
<path style=" stroke:none;fill-rule:evenodd;fill:rgb(0.784314%,46.666667%,74.117647%);fill-opacity:1;" d="M 12.980469 9.125 L 29.632812 25.777344 L 29.589844 25.777344 L 12.941406 9.128906 Z M 12.980469 9.125 "/>
</g>
</g>
<g clip-path="url(#clip37)" clip-rule="nonzero">
<g clip-path="url(#clip38)" clip-rule="evenodd">
<path style=" stroke:none;fill-rule:evenodd;fill:rgb(0.784314%,46.666667%,74.117647%);fill-opacity:1;" d="M 12.902344 9.089844 L 29.550781 25.742188 L 28.757812 25.003906 L 12.105469 8.351562 Z M 12.902344 9.089844 "/>
</g>
</g>
<g clip-path="url(#clip39)" clip-rule="nonzero">
<g clip-path="url(#clip40)" clip-rule="evenodd">
<path style=" stroke:none;fill-rule:evenodd;fill:rgb(0.784314%,46.666667%,74.117647%);fill-opacity:1;" d="M 18.898438 15.167969 L 35.546875 31.816406 L 35.546875 31.984375 L 35.542969 32.015625 L 35.542969 32.078125 L 35.539062 32.109375 L 35.539062 32.144531 L 35.535156 32.175781 L 35.535156 32.210938 L 35.53125 32.246094 L 35.53125 32.28125 L 35.527344 32.316406 L 35.527344 32.351562 L 35.523438 32.390625 L 35.519531 32.425781 L 35.515625 32.464844 L 35.515625 32.503906 L 35.5 32.660156 L 35.496094 32.703125 L 35.492188 32.742188 L 35.484375 32.785156 L 35.472656 32.914062 L 35.464844 32.957031 L 18.816406 16.304688 L 18.820312 16.261719 L 18.828125 16.21875 L 18.832031 16.179688 L 18.839844 16.09375 L 18.84375 16.054688 L 18.847656 16.011719 L 18.855469 15.933594 L 18.859375 15.890625 L 18.863281 15.855469 L 18.875 15.738281 L 18.875 15.703125 L 18.882812 15.632812 L 18.882812 15.597656 L 18.886719 15.5625 L 18.886719 15.527344 L 18.890625 15.492188 L 18.890625 15.429688 L 18.894531 15.398438 L 18.894531 15.304688 L 18.898438 15.277344 Z M 18.898438 15.167969 "/>
</g>
</g>
<g clip-path="url(#clip41)" clip-rule="nonzero">
<g clip-path="url(#clip42)" clip-rule="evenodd">
<path style=" stroke:none;fill-rule:evenodd;fill:rgb(0.784314%,46.666667%,74.117647%);fill-opacity:1;" d="M 23.203125 15.246094 L 39.851562 31.894531 L 39.859375 31.90625 L 39.867188 31.9375 L 39.867188 31.953125 L 39.863281 31.96875 L 39.859375 31.980469 L 39.847656 31.996094 L 23.199219 15.347656 L 23.214844 15.316406 L 23.21875 15.300781 L 23.21875 15.289062 L 23.210938 15.257812 Z M 23.203125 15.246094 "/>
</g>
</g>
<g clip-path="url(#clip43)" clip-rule="nonzero">
<g clip-path="url(#clip44)" clip-rule="evenodd">
<path style=" stroke:none;fill-rule:evenodd;fill:rgb(0.784314%,46.666667%,74.117647%);fill-opacity:1;" d="M 16.972656 12.527344 L 33.621094 29.179688 L 33.605469 29.328125 L 16.957031 12.679688 Z M 16.972656 12.527344 "/>
</g>
</g>
<g clip-path="url(#clip45)" clip-rule="nonzero">
<g clip-path="url(#clip46)" clip-rule="evenodd">
<path style=" stroke:none;fill-rule:evenodd;fill:rgb(0.784314%,46.666667%,74.117647%);fill-opacity:1;" d="M 18.359375 13.710938 L 35.011719 30.359375 L 35.050781 30.414062 L 35.070312 30.4375 L 35.128906 30.519531 L 35.144531 30.542969 L 35.164062 30.570312 L 35.179688 30.597656 L 35.199219 30.625 L 35.261719 30.734375 L 35.277344 30.765625 L 35.292969 30.792969 L 18.640625 14.140625 L 18.628906 14.113281 L 18.566406 14.003906 L 18.546875 13.976562 L 18.53125 13.949219 L 18.511719 13.921875 L 18.496094 13.894531 L 18.457031 13.839844 L 18.441406 13.816406 L 18.402344 13.761719 L 18.378906 13.738281 Z M 18.359375 13.710938 "/>
<path style=" stroke:none;fill-rule:evenodd;fill:rgb(0.784314%,46.666667%,74.117647%);fill-opacity:1;" d="M 18.226562 13.554688 L 34.875 30.203125 L 34.945312 30.28125 L 34.976562 30.320312 L 35.011719 30.359375 L 18.359375 13.710938 L 18.328125 13.671875 L 18.292969 13.632812 L 18.261719 13.59375 Z M 18.226562 13.554688 "/>
</g>
</g>
<g clip-path="url(#clip47)" clip-rule="nonzero">
<g clip-path="url(#clip48)" clip-rule="evenodd">
<path style=" stroke:none;fill-rule:evenodd;fill:rgb(0.784314%,46.666667%,74.117647%);fill-opacity:1;" d="M 12.941406 9.128906 L 29.589844 25.777344 L 29.550781 25.742188 L 12.902344 9.089844 Z M 12.941406 9.128906 "/>
</g>
</g>
<g clip-path="url(#clip49)" clip-rule="nonzero">
<g clip-path="url(#clip50)" clip-rule="evenodd">
<path style=" stroke:none;fill-rule:evenodd;fill:rgb(0.784314%,46.666667%,74.117647%);fill-opacity:1;" d="M 20.742188 17.027344 L 37.390625 33.679688 L 35.355469 33.679688 L 18.703125 17.027344 Z M 20.742188 17.027344 "/>
</g>
</g>
<g clip-path="url(#clip51)" clip-rule="nonzero">
<g clip-path="url(#clip52)" clip-rule="evenodd">
<path style=" stroke:none;fill-rule:evenodd;fill:rgb(0.784314%,46.666667%,74.117647%);fill-opacity:1;" d="M 13.078125 12.679688 L 29.726562 29.328125 L 29.714844 29.328125 L 13.0625 12.679688 Z M 13.078125 12.679688 "/>
</g>
</g>
<g clip-path="url(#clip53)" clip-rule="nonzero">
<g clip-path="url(#clip54)" clip-rule="evenodd">
<path style=" stroke:none;fill-rule:evenodd;fill:rgb(0.784314%,46.666667%,74.117647%);fill-opacity:1;" d="M 18.703125 17.027344 L 35.355469 33.679688 L 35.347656 33.710938 L 35.34375 33.746094 L 35.328125 33.808594 L 35.324219 33.84375 L 35.316406 33.875 L 35.308594 33.910156 L 35.304688 33.941406 L 35.289062 34.011719 L 35.28125 34.042969 L 35.265625 34.113281 L 35.261719 34.144531 L 35.246094 34.214844 L 35.238281 34.246094 L 35.222656 34.316406 L 35.210938 34.351562 L 35.203125 34.382812 L 35.171875 34.523438 L 35.160156 34.554688 L 35.144531 34.625 L 35.132812 34.660156 L 35.117188 34.730469 L 35.105469 34.761719 L 18.457031 18.113281 L 18.464844 18.078125 L 18.476562 18.042969 L 18.484375 18.011719 L 18.492188 17.976562 L 18.503906 17.941406 L 18.519531 17.871094 L 18.53125 17.835938 L 18.539062 17.804688 L 18.570312 17.664062 L 18.578125 17.632812 L 18.59375 17.5625 L 18.601562 17.53125 L 18.617188 17.460938 L 18.625 17.429688 L 18.640625 17.359375 L 18.644531 17.328125 L 18.652344 17.292969 L 18.660156 17.261719 L 18.667969 17.226562 L 18.671875 17.195312 L 18.679688 17.160156 L 18.6875 17.128906 L 18.691406 17.09375 L 18.699219 17.0625 Z M 18.703125 17.027344 "/>
</g>
</g>
<g clip-path="url(#clip55)" clip-rule="nonzero">
<g clip-path="url(#clip56)" clip-rule="evenodd">
<path style=" stroke:none;fill-rule:evenodd;fill:rgb(0.784314%,46.666667%,74.117647%);fill-opacity:1;" d="M 20.617188 19.5 L 37.265625 36.152344 L 37.929688 37.152344 L 21.28125 20.503906 Z M 20.617188 19.5 "/>
<path style=" stroke:none;fill-rule:evenodd;fill:rgb(0.784314%,46.666667%,74.117647%);fill-opacity:1;" d="M 20.34375 19.746094 L 36.996094 36.394531 L 36.964844 36.402344 L 36.878906 36.402344 L 36.863281 36.398438 L 36.851562 36.394531 L 36.835938 36.394531 L 36.820312 36.390625 L 36.808594 36.382812 L 36.777344 36.375 L 36.765625 36.367188 L 20.113281 19.71875 L 20.128906 19.722656 L 20.144531 19.730469 L 20.15625 19.734375 L 20.1875 19.742188 L 20.199219 19.746094 L 20.214844 19.75 L 20.230469 19.75 L 20.242188 19.753906 L 20.300781 19.753906 L 20.316406 19.75 L 20.332031 19.75 Z M 20.34375 19.746094 "/>
</g>
</g>
<g clip-path="url(#clip57)" clip-rule="nonzero">
<g clip-path="url(#clip58)" clip-rule="evenodd">
<path style=" stroke:none;fill-rule:evenodd;fill:rgb(0.784314%,46.666667%,74.117647%);fill-opacity:1;" d="M 20.113281 19.71875 L 36.765625 36.367188 L 34.886719 35.457031 L 18.234375 18.808594 Z M 20.113281 19.71875 "/>
</g>
</g>
<g clip-path="url(#clip59)" clip-rule="nonzero">
<g clip-path="url(#clip60)" clip-rule="evenodd">
<path style=" stroke:none;fill-rule:evenodd;fill:rgb(0.784314%,46.666667%,74.117647%);fill-opacity:1;" d="M 18.234375 18.808594 L 34.886719 35.457031 L 34.855469 35.535156 L 34.84375 35.574219 L 34.8125 35.652344 L 34.800781 35.6875 L 34.753906 35.804688 L 34.738281 35.839844 L 34.707031 35.917969 L 34.691406 35.953125 L 34.675781 35.992188 L 34.65625 36.027344 L 34.640625 36.066406 L 34.625 36.101562 L 34.605469 36.140625 L 34.589844 36.175781 L 34.574219 36.214844 L 34.554688 36.25 L 34.539062 36.285156 L 34.519531 36.320312 L 34.5 36.359375 L 34.484375 36.394531 L 34.347656 36.640625 L 17.699219 19.988281 L 17.71875 19.953125 L 17.738281 19.921875 L 17.816406 19.78125 L 17.832031 19.742188 L 17.871094 19.671875 L 17.886719 19.636719 L 17.90625 19.601562 L 17.921875 19.5625 L 17.941406 19.527344 L 17.957031 19.488281 L 17.972656 19.453125 L 17.992188 19.417969 L 18.023438 19.339844 L 18.039062 19.304688 L 18.058594 19.265625 L 18.074219 19.230469 L 18.105469 19.152344 L 18.121094 19.117188 L 18.132812 19.078125 L 18.179688 18.960938 L 18.195312 18.925781 L 18.207031 18.886719 L 18.222656 18.847656 Z M 18.234375 18.808594 "/>
</g>
</g>
<g clip-path="url(#clip61)" clip-rule="nonzero">
<g clip-path="url(#clip62)" clip-rule="evenodd">
<path style=" stroke:none;fill-rule:evenodd;fill:rgb(0.784314%,46.666667%,74.117647%);fill-opacity:1;" d="M 21.140625 21.972656 L 37.789062 38.625 L 37.757812 38.617188 L 37.746094 38.609375 L 37.734375 38.597656 L 21.082031 21.949219 L 21.09375 21.960938 L 21.109375 21.96875 L 21.125 21.972656 Z M 21.140625 21.972656 "/>
</g>
</g>
<g clip-path="url(#clip63)" clip-rule="nonzero">
<g clip-path="url(#clip64)" clip-rule="evenodd">
<path style=" stroke:none;fill-rule:evenodd;fill:rgb(0.784314%,46.666667%,74.117647%);fill-opacity:1;" d="M 21.074219 20.773438 L 37.722656 37.425781 L 37.710938 37.417969 L 37.695312 37.414062 L 37.671875 37.398438 L 37.660156 37.386719 L 37.648438 37.378906 L 21 20.726562 L 21.011719 20.738281 L 21.023438 20.746094 L 21.035156 20.757812 L 21.046875 20.761719 L 21.058594 20.769531 Z M 21.074219 20.773438 "/>
<path style=" stroke:none;fill-rule:evenodd;fill:rgb(0.784314%,46.666667%,74.117647%);fill-opacity:1;" d="M 21.28125 20.503906 L 37.929688 37.152344 L 37.941406 37.167969 L 37.949219 37.1875 L 37.957031 37.21875 L 37.960938 37.238281 L 37.960938 37.269531 L 37.957031 37.289062 L 37.949219 37.320312 L 37.933594 37.351562 L 37.921875 37.367188 L 37.898438 37.390625 L 37.882812 37.402344 L 21.234375 20.753906 L 21.25 20.742188 L 21.261719 20.730469 L 21.273438 20.714844 L 21.28125 20.703125 L 21.292969 20.6875 L 21.300781 20.671875 L 21.304688 20.65625 L 21.308594 20.636719 L 21.3125 20.621094 L 21.3125 20.585938 L 21.308594 20.570312 L 21.304688 20.550781 L 21.296875 20.535156 L 21.292969 20.519531 Z M 21.28125 20.503906 "/>
<path style=" stroke:none;fill-rule:evenodd;fill:rgb(0.784314%,46.666667%,74.117647%);fill-opacity:1;" d="M 21.234375 20.753906 L 37.882812 37.402344 L 37.871094 38.542969 L 21.222656 21.894531 Z M 21.234375 20.753906 "/>
</g>
</g>
<g clip-path="url(#clip65)" clip-rule="nonzero">
<g clip-path="url(#clip66)" clip-rule="evenodd">
<path style=" stroke:none;fill-rule:evenodd;fill:rgb(0.784314%,46.666667%,74.117647%);fill-opacity:1;" d="M 21.222656 21.894531 L 37.871094 38.542969 L 37.863281 38.574219 L 37.855469 38.589844 L 37.847656 38.601562 L 37.835938 38.609375 L 37.820312 38.617188 L 37.789062 38.625 L 21.140625 21.972656 L 21.15625 21.972656 L 21.171875 21.96875 L 21.183594 21.960938 L 21.207031 21.9375 L 21.214844 21.925781 Z M 21.222656 21.894531 "/>
</g>
</g>
<g clip-path="url(#clip67)" clip-rule="nonzero">
<g clip-path="url(#clip68)" clip-rule="evenodd">
<path style=" stroke:none;fill-rule:evenodd;fill:rgb(0.784314%,46.666667%,74.117647%);fill-opacity:1;" d="M 8.078125 11.425781 L 24.738281 28.085938 L 24.75 28.101562 L 24.753906 28.117188 L 8.105469 11.464844 L 8.097656 11.449219 L 8.089844 11.4375 Z M 8.078125 11.425781 "/>
</g>
</g>
<g clip-path="url(#clip69)" clip-rule="nonzero">
<g clip-path="url(#clip70)" clip-rule="evenodd">
<path style=" stroke:none;fill-rule:evenodd;fill:rgb(0.784314%,46.666667%,74.117647%);fill-opacity:1;" d="M 11.316406 17.027344 L 27.964844 33.679688 L 25.925781 33.679688 L 9.277344 17.027344 Z M 11.316406 17.027344 "/>
</g>
</g>
<g clip-path="url(#clip71)" clip-rule="nonzero">
<g clip-path="url(#clip72)" clip-rule="evenodd">
<path style=" stroke:none;fill-rule:evenodd;fill:rgb(0.784314%,46.666667%,74.117647%);fill-opacity:1;" d="M 6.929688 15.230469 L 23.582031 31.878906 L 23.59375 31.890625 L 6.941406 15.242188 Z M 6.929688 15.230469 "/>
</g>
</g>
<g clip-path="url(#clip73)" clip-rule="nonzero">
<g clip-path="url(#clip74)" clip-rule="evenodd">
<path style=" stroke:none;fill-rule:evenodd;fill:rgb(0.784314%,46.666667%,74.117647%);fill-opacity:1;" d="M 6.941406 15.242188 L 23.59375 31.890625 L 24.316406 32.742188 L 7.667969 16.089844 Z M 6.941406 15.242188 "/>
</g>
</g>
<g clip-path="url(#clip75)" clip-rule="nonzero">
<g clip-path="url(#clip76)" clip-rule="evenodd">
<path style=" stroke:none;fill-rule:evenodd;fill:rgb(0.784314%,46.666667%,74.117647%);fill-opacity:1;" d="M 9.90625 19.71875 L 26.554688 36.367188 L 26.539062 36.375 L 26.527344 36.378906 L 26.511719 36.382812 L 26.496094 36.390625 L 26.484375 36.394531 L 26.46875 36.394531 L 26.453125 36.398438 L 26.441406 36.402344 L 26.351562 36.402344 L 26.339844 36.398438 L 26.324219 36.394531 L 9.675781 19.746094 L 9.6875 19.75 L 9.703125 19.75 L 9.71875 19.753906 L 9.777344 19.753906 L 9.789062 19.75 L 9.804688 19.75 L 9.820312 19.746094 L 9.832031 19.742188 L 9.863281 19.734375 L 9.875 19.730469 L 9.890625 19.722656 Z M 9.90625 19.71875 "/>
<path style=" stroke:none;fill-rule:evenodd;fill:rgb(0.784314%,46.666667%,74.117647%);fill-opacity:1;" d="M 9.675781 19.746094 L 26.324219 36.394531 L 25.6875 37.351562 L 9.039062 20.703125 Z M 9.675781 19.746094 "/>
</g>
</g>
<g clip-path="url(#clip77)" clip-rule="nonzero">
<g clip-path="url(#clip78)" clip-rule="evenodd">
<path style=" stroke:none;fill-rule:evenodd;fill:rgb(0.784314%,46.666667%,74.117647%);fill-opacity:1;" d="M 9.039062 20.703125 L 25.6875 37.351562 L 25.679688 37.367188 L 25.648438 37.398438 L 25.636719 37.40625 L 25.621094 37.414062 L 25.609375 37.417969 L 25.597656 37.425781 L 8.945312 20.773438 L 8.960938 20.769531 L 8.972656 20.761719 L 8.984375 20.757812 L 8.996094 20.746094 L 9.007812 20.738281 L 9.03125 20.714844 Z M 9.039062 20.703125 "/>
<path style=" stroke:none;fill-rule:evenodd;fill:rgb(0.784314%,46.666667%,74.117647%);fill-opacity:1;" d="M 8.785156 20.753906 L 25.433594 37.402344 L 25.421875 37.390625 L 8.769531 20.742188 Z M 8.785156 20.753906 "/>
</g>
</g>
<g clip-path="url(#clip79)" clip-rule="nonzero">
<g clip-path="url(#clip80)" clip-rule="evenodd">
<path style=" stroke:none;fill-rule:evenodd;fill:rgb(0.784314%,46.666667%,74.117647%);fill-opacity:1;" d="M 8.957031 21.890625 L 25.609375 38.542969 L 25.601562 38.574219 L 25.585938 38.597656 L 25.574219 38.609375 L 25.558594 38.617188 L 25.546875 38.621094 L 25.527344 38.625 L 8.878906 21.972656 L 8.894531 21.972656 L 8.910156 21.96875 L 8.925781 21.960938 L 8.9375 21.949219 L 8.945312 21.9375 L 8.953125 21.921875 L 8.957031 21.910156 Z M 8.957031 21.890625 "/>
<path style=" stroke:none;fill-rule:evenodd;fill:rgb(0.784314%,46.666667%,74.117647%);fill-opacity:1;" d="M 8.878906 21.972656 L 25.527344 38.625 L 25.496094 38.617188 L 25.472656 38.601562 L 8.824219 21.949219 L 8.835938 21.960938 L 8.847656 21.96875 L 8.863281 21.972656 Z M 8.878906 21.972656 "/>
</g>
</g>
<g clip-path="url(#clip81)" clip-rule="nonzero">
<g clip-path="url(#clip82)" clip-rule="evenodd">
<path style=" stroke:none;fill-rule:evenodd;fill:rgb(0.784314%,46.666667%,74.117647%);fill-opacity:1;" d="M 8.945312 20.773438 L 25.597656 37.425781 L 25.609375 38.542969 L 8.957031 21.890625 Z M 8.945312 20.773438 "/>
</g>
</g>
<g clip-path="url(#clip83)" clip-rule="nonzero">
<g clip-path="url(#clip84)" clip-rule="evenodd">
<path style=" stroke:none;fill-rule:evenodd;fill:rgb(0.784314%,46.666667%,74.117647%);fill-opacity:1;" d="M 9.273438 13.6875 L 25.921875 30.339844 L 24.933594 29.511719 L 8.285156 12.859375 Z M 9.273438 13.6875 "/>
</g>
</g>
<g clip-path="url(#clip85)" clip-rule="nonzero">
<g clip-path="url(#clip86)" clip-rule="evenodd">
<path style=" stroke:none;fill-rule:evenodd;fill:rgb(0.784314%,46.666667%,74.117647%);fill-opacity:1;" d="M 7.6875 16.433594 L 24.339844 33.082031 L 24.320312 33.078125 L 24.289062 33.0625 L 24.273438 33.050781 L 7.613281 16.390625 L 7.625 16.402344 L 7.640625 16.410156 L 7.65625 16.421875 L 7.671875 16.425781 Z M 7.6875 16.433594 "/>
</g>
</g>
<g clip-path="url(#clip87)" clip-rule="nonzero">
<g clip-path="url(#clip88)" clip-rule="evenodd">
<path style=" stroke:none;fill-rule:evenodd;fill:rgb(0.784314%,46.666667%,74.117647%);fill-opacity:1;" d="M 8.929688 16.773438 L 25.582031 33.421875 L 24.339844 33.082031 L 7.6875 16.433594 Z M 8.929688 16.773438 "/>
</g>
</g>
<g clip-path="url(#clip89)" clip-rule="nonzero">
<g clip-path="url(#clip90)" clip-rule="evenodd">
<path style=" stroke:none;fill-rule:evenodd;fill:rgb(0.784314%,46.666667%,74.117647%);fill-opacity:1;" d="M 9.277344 17.027344 L 25.925781 33.679688 L 25.894531 33.675781 L 25.839844 33.667969 L 25.808594 33.660156 L 25.785156 33.648438 L 25.757812 33.636719 L 25.6875 33.589844 L 9.039062 16.9375 L 9.058594 16.957031 L 9.082031 16.972656 L 9.109375 16.988281 L 9.132812 17 L 9.160156 17.011719 L 9.1875 17.019531 L 9.21875 17.023438 L 9.246094 17.027344 Z M 9.277344 17.027344 "/>
</g>
</g>
<g clip-path="url(#clip91)" clip-rule="nonzero">
<g clip-path="url(#clip92)" clip-rule="evenodd">
<path style=" stroke:none;fill-rule:evenodd;fill:rgb(0.784314%,46.666667%,74.117647%);fill-opacity:1;" d="M 11.789062 18.808594 L 28.4375 35.457031 L 26.554688 36.367188 L 9.90625 19.71875 Z M 11.789062 18.808594 "/>
</g>
</g>
<g clip-path="url(#clip93)" clip-rule="nonzero">
<g clip-path="url(#clip94)" clip-rule="evenodd">
<path style=" stroke:none;fill-rule:evenodd;fill:rgb(0.784314%,46.666667%,74.117647%);fill-opacity:1;" d="M 15.007812 21.785156 L 31.660156 38.4375 L 31.503906 38.433594 L 31.355469 38.421875 L 31.207031 38.398438 L 31.066406 38.371094 L 30.925781 38.335938 L 30.789062 38.296875 L 30.660156 38.246094 L 30.53125 38.191406 L 30.40625 38.128906 L 30.285156 38.058594 L 30.167969 37.984375 L 30.054688 37.90625 L 29.945312 37.820312 L 29.839844 37.730469 L 13.1875 21.078125 L 13.296875 21.171875 L 13.40625 21.257812 L 13.519531 21.335938 L 13.636719 21.410156 L 13.757812 21.480469 L 14.007812 21.597656 L 14.140625 21.644531 L 14.277344 21.6875 L 14.414062 21.722656 L 14.558594 21.75 L 14.703125 21.769531 L 14.855469 21.78125 Z M 15.007812 21.785156 "/>
</g>
</g>
<g clip-path="url(#clip95)" clip-rule="nonzero">
<g clip-path="url(#clip96)" clip-rule="evenodd">
<path style=" stroke:none;fill-rule:evenodd;fill:rgb(0.784314%,46.666667%,74.117647%);fill-opacity:1;" d="M 9.480469 14.066406 L 26.128906 30.714844 L 26.101562 30.699219 L 26.054688 30.667969 L 26.03125 30.648438 L 9.382812 14 L 9.402344 14.019531 L 9.425781 14.035156 Z M 9.480469 14.066406 "/>
</g>
</g>
<g clip-path="url(#clip97)" clip-rule="nonzero">
<g clip-path="url(#clip98)" clip-rule="evenodd">
<path style=" stroke:none;fill-rule:evenodd;fill:rgb(0.784314%,46.666667%,74.117647%);fill-opacity:1;" d="M 8.285156 12.859375 L 24.933594 29.511719 L 24.921875 29.496094 L 8.273438 12.847656 Z M 8.285156 12.859375 "/>
</g>
</g>
<g clip-path="url(#clip99)" clip-rule="nonzero">
<g clip-path="url(#clip100)" clip-rule="evenodd">
<path style=" stroke:none;fill-rule:evenodd;fill:rgb(0.784314%,46.666667%,74.117647%);fill-opacity:1;" d="M 8.105469 11.464844 L 24.753906 28.117188 L 25.058594 29.191406 L 8.410156 12.542969 Z M 8.105469 11.464844 "/>
</g>
</g>
<g clip-path="url(#clip101)" clip-rule="nonzero">
<g clip-path="url(#clip102)" clip-rule="evenodd">
<path style=" stroke:none;fill-rule:evenodd;fill:rgb(0.784314%,46.666667%,74.117647%);fill-opacity:1;" d="M 11.148438 14.832031 L 27.796875 31.480469 L 26.128906 30.714844 L 9.480469 14.066406 Z M 11.148438 14.832031 "/>
</g>
</g>
<g clip-path="url(#clip103)" clip-rule="nonzero">
<g clip-path="url(#clip104)" clip-rule="evenodd">
<path style=" stroke:none;fill-rule:evenodd;fill:rgb(0.784314%,46.666667%,74.117647%);fill-opacity:1;" d="M 17.699219 19.988281 L 34.347656 36.640625 L 34.332031 36.664062 L 34.316406 36.691406 L 34.304688 36.71875 L 34.289062 36.742188 L 34.273438 36.769531 L 34.257812 36.792969 L 34.238281 36.820312 L 34.222656 36.84375 L 34.207031 36.871094 L 34.175781 36.917969 L 34.160156 36.945312 L 34.144531 36.96875 L 34.125 36.992188 L 34.109375 37.019531 L 34.09375 37.042969 L 34.074219 37.066406 L 34.058594 37.089844 L 34.039062 37.113281 L 34.007812 37.160156 L 33.96875 37.207031 L 33.953125 37.230469 L 33.933594 37.253906 L 33.917969 37.277344 L 33.898438 37.296875 L 33.859375 37.34375 L 33.84375 37.363281 L 33.804688 37.410156 L 17.15625 20.757812 L 17.175781 20.738281 L 17.191406 20.714844 L 17.210938 20.691406 L 17.230469 20.671875 L 17.25 20.648438 L 17.265625 20.625 L 17.285156 20.601562 L 17.304688 20.582031 L 17.320312 20.558594 L 17.339844 20.535156 L 17.355469 20.511719 L 17.375 20.488281 L 17.390625 20.464844 L 17.410156 20.441406 L 17.425781 20.417969 L 17.441406 20.390625 L 17.460938 20.367188 L 17.492188 20.320312 L 17.507812 20.292969 L 17.527344 20.269531 L 17.542969 20.246094 L 17.558594 20.21875 L 17.574219 20.195312 L 17.589844 20.167969 L 17.605469 20.144531 L 17.621094 20.117188 L 17.636719 20.09375 L 17.652344 20.066406 L 17.667969 20.042969 Z M 17.699219 19.988281 "/>
</g>
</g>
<g clip-path="url(#clip105)" clip-rule="nonzero">
<g clip-path="url(#clip106)" clip-rule="evenodd">
<path style=" stroke:none;fill-rule:evenodd;fill:rgb(0.784314%,46.666667%,74.117647%);fill-opacity:1;" d="M 17.15625 20.757812 L 33.804688 37.410156 L 33.753906 37.464844 L 33.699219 37.523438 L 33.648438 37.578125 L 33.59375 37.628906 L 33.539062 37.683594 L 33.480469 37.734375 L 33.425781 37.78125 L 33.367188 37.832031 L 33.308594 37.878906 L 33.246094 37.921875 L 33.1875 37.964844 L 33.125 38.007812 L 33.058594 38.046875 L 32.996094 38.085938 L 32.863281 38.15625 L 32.730469 38.21875 L 32.519531 38.300781 L 32.445312 38.324219 L 32.296875 38.363281 L 32.222656 38.378906 L 32.144531 38.394531 L 31.988281 38.417969 L 31.824219 38.433594 L 31.742188 38.433594 L 31.660156 38.4375 L 15.007812 21.785156 L 15.09375 21.785156 L 15.257812 21.777344 L 15.335938 21.769531 L 15.417969 21.757812 L 15.496094 21.746094 L 15.570312 21.730469 L 15.648438 21.714844 L 15.722656 21.695312 L 15.796875 21.671875 L 15.867188 21.648438 L 15.941406 21.625 L 16.011719 21.597656 L 16.078125 21.570312 L 16.148438 21.539062 L 16.214844 21.503906 L 16.28125 21.472656 L 16.347656 21.433594 L 16.410156 21.398438 L 16.472656 21.355469 L 16.535156 21.316406 L 16.597656 21.273438 L 16.832031 21.085938 L 16.886719 21.035156 L 16.945312 20.980469 L 16.996094 20.925781 L 17.105469 20.816406 Z M 17.15625 20.757812 "/>
</g>
</g>
<g clip-path="url(#clip107)" clip-rule="nonzero">
<g clip-path="url(#clip108)" clip-rule="evenodd">
<path style=" stroke:none;fill-rule:evenodd;fill:rgb(0.784314%,46.666667%,74.117647%);fill-opacity:1;" d="M 20.535156 19.144531 L 37.183594 35.792969 L 37.207031 35.820312 L 37.222656 35.84375 L 37.242188 35.871094 L 37.253906 35.902344 L 37.265625 35.929688 L 37.273438 35.960938 L 37.28125 36.023438 L 37.28125 36.085938 L 37.273438 36.121094 L 37.265625 36.152344 L 20.617188 19.5 L 20.625 19.46875 L 20.632812 19.40625 L 20.632812 19.375 L 20.625 19.3125 L 20.617188 19.28125 L 20.605469 19.25 L 20.574219 19.195312 L 20.554688 19.167969 Z M 20.535156 19.144531 "/>
</g>
</g>
<g clip-path="url(#clip109)" clip-rule="nonzero">
<g clip-path="url(#clip110)" clip-rule="evenodd">
<path style=" stroke:none;fill-rule:evenodd;fill:rgb(0.784314%,46.666667%,74.117647%);fill-opacity:1;" d="M 20.539062 14.066406 L 37.191406 30.714844 L 35.523438 31.480469 L 18.871094 14.832031 Z M 20.539062 14.066406 "/>
<path style=" stroke:none;fill-rule:evenodd;fill:rgb(0.784314%,46.666667%,74.117647%);fill-opacity:1;" d="M 18.871094 14.832031 L 35.523438 31.480469 L 35.523438 31.5 L 35.527344 31.515625 L 35.527344 31.535156 L 35.53125 31.550781 L 35.535156 31.570312 L 35.535156 31.585938 L 35.539062 31.605469 L 35.539062 31.640625 L 35.542969 31.65625 L 35.542969 31.695312 L 35.546875 31.710938 L 35.546875 31.765625 L 18.898438 15.117188 L 18.898438 15.097656 L 18.894531 15.078125 L 18.894531 15.027344 L 18.890625 15.007812 L 18.890625 14.972656 L 18.886719 14.953125 L 18.886719 14.9375 L 18.882812 14.917969 L 18.882812 14.902344 L 18.878906 14.882812 L 18.878906 14.867188 L 18.875 14.847656 Z M 18.871094 14.832031 "/>
</g>
</g>
<g clip-path="url(#clip111)" clip-rule="nonzero">
<g clip-path="url(#clip112)" clip-rule="evenodd">
<path style=" stroke:none;fill-rule:evenodd;fill:rgb(0.784314%,46.666667%,74.117647%);fill-opacity:1;" d="M 18.898438 15.117188 L 35.546875 31.765625 L 35.546875 31.816406 L 18.898438 15.167969 Z M 18.898438 15.117188 "/>
</g>
</g>
<g clip-path="url(#clip113)" clip-rule="nonzero">
<g clip-path="url(#clip114)" clip-rule="evenodd">
<path style=" stroke:none;fill-rule:evenodd;fill:rgb(0.784314%,46.666667%,74.117647%);fill-opacity:1;" d="M 21.089844 16.773438 L 37.738281 33.421875 L 37.726562 33.449219 L 37.71875 33.476562 L 37.671875 33.546875 L 37.652344 33.570312 L 37.632812 33.589844 L 37.5625 33.636719 L 37.507812 33.660156 L 37.480469 33.667969 L 37.453125 33.671875 L 37.390625 33.679688 L 20.742188 17.027344 L 20.773438 17.027344 L 20.800781 17.023438 L 20.832031 17.019531 L 20.859375 17.011719 L 20.886719 17 L 20.910156 16.988281 L 20.9375 16.972656 L 20.960938 16.957031 L 20.980469 16.9375 L 21.003906 16.917969 L 21.019531 16.898438 L 21.039062 16.875 L 21.054688 16.851562 L 21.066406 16.828125 Z M 21.089844 16.773438 "/>
</g>
</g>
<g clip-path="url(#clip115)" clip-rule="nonzero">
<g clip-path="url(#clip116)" clip-rule="evenodd">
<path style=" stroke:none;fill-rule:evenodd;fill:rgb(0.784314%,46.666667%,74.117647%);fill-opacity:1;" d="M 22.457031 16.214844 L 39.109375 32.863281 L 39.109375 32.882812 L 39.113281 32.898438 L 39.113281 32.933594 L 39.109375 32.953125 L 39.101562 32.96875 L 39.097656 32.984375 L 39.089844 33 L 39.078125 33.011719 L 39.070312 33.027344 L 39.058594 33.039062 L 39.042969 33.050781 L 39.03125 33.0625 L 39.015625 33.070312 L 38.996094 33.078125 L 38.980469 33.082031 L 22.332031 16.433594 L 22.347656 16.425781 L 22.363281 16.421875 L 22.378906 16.410156 L 22.394531 16.402344 L 22.417969 16.378906 L 22.429688 16.363281 L 22.4375 16.347656 L 22.445312 16.335938 L 22.453125 16.320312 L 22.457031 16.300781 L 22.460938 16.285156 L 22.464844 16.265625 L 22.464844 16.25 L 22.460938 16.230469 Z M 22.457031 16.214844 "/>
</g>
</g>
<g clip-path="url(#clip117)" clip-rule="nonzero">
<g clip-path="url(#clip118)" clip-rule="evenodd">
<path style=" stroke:none;fill-rule:evenodd;fill:rgb(0.784314%,46.666667%,74.117647%);fill-opacity:1;" d="M 22.332031 16.433594 L 38.980469 33.082031 L 37.738281 33.421875 L 21.089844 16.773438 Z M 22.332031 16.433594 "/>
</g>
</g>
<g clip-path="url(#clip119)" clip-rule="nonzero">
<g clip-path="url(#clip120)" clip-rule="evenodd">
<path style=" stroke:none;fill-rule:evenodd;fill:rgb(0.784314%,46.666667%,74.117647%);fill-opacity:1;" d="M 23.199219 15.347656 L 39.847656 31.996094 L 39.109375 32.863281 L 22.457031 16.214844 Z M 23.199219 15.347656 "/>
</g>
</g>
<g clip-path="url(#clip121)" clip-rule="nonzero">
<g clip-path="url(#clip122)" clip-rule="evenodd">
<path style=" stroke:none;fill-rule:evenodd;fill:rgb(0.784314%,46.666667%,74.117647%);fill-opacity:1;" d="M 17.539062 8.046875 L 17.914062 8.351562 L 17.117188 9.089844 L 17.078125 9.128906 L 17.039062 9.125 L 16.191406 9.082031 L 15.636719 9.714844 C 15.6875 9.75 15.734375 9.789062 15.777344 9.832031 C 15.9375 10.003906 16.042969 10.230469 16.046875 10.480469 C 16.441406 10.640625 16.695312 10.90625 16.839844 11.246094 C 16.996094 11.601562 17.023438 12.039062 16.972656 12.527344 L 16.957031 12.679688 L 16.941406 12.679688 C 17.527344 12.925781 18.015625 13.28125 18.359375 13.710938 C 18.46875 13.847656 18.566406 13.992188 18.640625 14.140625 L 20.238281 13.410156 C 20.332031 13.367188 20.4375 13.367188 20.527344 13.402344 L 21.5 12.582031 C 21.535156 12.558594 21.570312 12.542969 21.609375 12.542969 L 21.914062 11.464844 C 21.925781 11.421875 21.972656 11.398438 22.015625 11.410156 C 22.054688 11.421875 22.082031 11.46875 22.070312 11.511719 L 21.757812 12.609375 C 21.820312 12.683594 21.808594 12.796875 21.734375 12.859375 L 20.746094 13.6875 C 20.769531 13.839844 20.6875 13.996094 20.539062 14.066406 L 18.871094 14.832031 C 18.886719 14.925781 18.894531 15.019531 18.898438 15.117188 C 18.898438 15.132812 18.898438 15.148438 18.898438 15.167969 C 18.898438 15.445312 18.875 15.84375 18.816406 16.304688 L 20.742188 16.304688 C 20.847656 16.304688 20.941406 16.351562 21.007812 16.421875 L 22.234375 16.085938 C 22.273438 16.074219 22.316406 16.078125 22.351562 16.089844 L 23.078125 15.242188 C 23.105469 15.207031 23.15625 15.203125 23.191406 15.234375 C 23.222656 15.261719 23.226562 15.3125 23.199219 15.347656 L 22.457031 16.214844 C 22.480469 16.308594 22.425781 16.40625 22.332031 16.433594 L 21.089844 16.773438 C 21.042969 16.921875 20.90625 17.027344 20.742188 17.027344 L 18.703125 17.027344 C 18.640625 17.378906 18.558594 17.746094 18.457031 18.113281 C 18.464844 18.117188 18.472656 18.121094 18.476562 18.125 L 20.429688 19.066406 C 20.59375 19.144531 20.667969 19.332031 20.617188 19.5 L 21.28125 20.503906 C 21.335938 20.585938 21.316406 20.695312 21.234375 20.753906 L 21.222656 21.894531 C 21.222656 21.9375 21.183594 21.972656 21.140625 21.972656 C 21.097656 21.972656 21.058594 21.9375 21.0625 21.890625 L 21.074219 20.773438 C 21.035156 20.761719 21.003906 20.738281 20.980469 20.703125 L 20.34375 19.746094 C 20.269531 19.761719 20.1875 19.753906 20.113281 19.71875 L 18.234375 18.808594 C 18.089844 19.222656 17.910156 19.621094 17.699219 19.988281 C 17.539062 20.269531 17.355469 20.527344 17.15625 20.757812 C 16.609375 21.378906 15.90625 21.785156 15.007812 21.785156 C 13.339844 21.785156 12.351562 20.371094 11.789062 18.808594 L 9.90625 19.71875 C 9.832031 19.753906 9.75 19.761719 9.675781 19.746094 L 9.039062 20.703125 C 9.015625 20.738281 8.984375 20.761719 8.945312 20.773438 L 8.957031 21.890625 C 8.960938 21.9375 8.921875 21.972656 8.878906 21.972656 C 8.835938 21.972656 8.796875 21.9375 8.796875 21.894531 L 8.785156 20.753906 C 8.703125 20.695312 8.683594 20.585938 8.738281 20.503906 L 9.402344 19.5 C 9.351562 19.332031 9.425781 19.144531 9.589844 19.066406 L 11.542969 18.125 C 11.550781 18.121094 11.558594 18.117188 11.566406 18.113281 C 11.464844 17.742188 11.382812 17.378906 11.316406 17.027344 L 9.277344 17.027344 C 9.113281 17.027344 8.976562 16.921875 8.929688 16.773438 L 7.6875 16.433594 C 7.59375 16.40625 7.539062 16.308594 7.5625 16.214844 L 6.820312 15.347656 C 6.792969 15.3125 6.796875 15.261719 6.828125 15.234375 C 6.863281 15.203125 6.914062 15.207031 6.941406 15.242188 L 7.667969 16.089844 C 7.703125 16.078125 7.746094 16.074219 7.785156 16.085938 L 9.011719 16.421875 C 9.078125 16.351562 9.171875 16.304688 9.277344 16.304688 L 11.203125 16.304688 C 11.144531 15.84375 11.121094 15.445312 11.121094 15.167969 C 11.121094 15.054688 11.128906 14.941406 11.148438 14.832031 L 9.480469 14.066406 C 9.332031 13.996094 9.25 13.839844 9.273438 13.6875 L 8.285156 12.859375 C 8.210938 12.796875 8.199219 12.683594 8.261719 12.609375 L 7.949219 11.511719 C 7.9375 11.46875 7.964844 11.421875 8.003906 11.410156 C 8.046875 11.398438 8.09375 11.421875 8.105469 11.464844 L 8.410156 12.542969 C 8.449219 12.542969 8.484375 12.558594 8.519531 12.582031 L 9.492188 13.402344 C 9.582031 13.367188 9.6875 13.367188 9.78125 13.410156 L 11.378906 14.140625 C 11.453125 13.992188 11.550781 13.847656 11.660156 13.710938 C 12.003906 13.28125 12.492188 12.925781 13.078125 12.679688 L 13.0625 12.679688 L 13.046875 12.527344 C 12.996094 12.039062 13.023438 11.601562 13.179688 11.246094 C 13.324219 10.90625 13.578125 10.640625 13.972656 10.480469 C 13.976562 10.230469 14.082031 10.003906 14.242188 9.832031 C 14.285156 9.789062 14.332031 9.75 14.382812 9.714844 L 13.828125 9.082031 L 12.980469 9.125 L 12.941406 9.128906 L 12.902344 9.089844 L 12.105469 8.351562 L 12.480469 8.046875 L 13.027344 8.925781 L 13.867188 8.886719 L 13.914062 8.882812 L 13.945312 8.917969 L 14.550781 9.613281 C 14.65625 9.5625 14.769531 9.527344 14.890625 9.515625 C 14.933594 9.511719 14.972656 9.507812 15.007812 9.507812 C 15.046875 9.507812 15.085938 9.511719 15.128906 9.515625 C 15.25 9.527344 15.363281 9.5625 15.46875 9.613281 L 16.074219 8.917969 L 16.105469 8.882812 L 16.152344 8.886719 L 16.992188 8.925781 Z M 17.539062 8.046875 "/>
</g>
</g>
<path style=" stroke:none;fill-rule:nonzero;fill:rgb(12.941176%,12.941176%,12.941176%);fill-opacity:1;" d="M 9.421875 19.550781 C 9.335938 19.371094 9.410156 19.152344 9.589844 19.066406 L 11.542969 18.125 C 11.722656 18.035156 11.9375 18.113281 12.023438 18.292969 C 12.109375 18.472656 12.035156 18.6875 11.855469 18.773438 L 9.90625 19.71875 C 9.726562 19.804688 9.507812 19.730469 9.421875 19.550781 Z M 9.421875 19.550781 "/>
<path style=" stroke:none;fill-rule:nonzero;fill:rgb(12.941176%,12.941176%,12.941176%);fill-opacity:1;" d="M 8.789062 20.753906 C 8.707031 20.699219 8.683594 20.585938 8.738281 20.503906 L 9.527344 19.316406 C 9.582031 19.234375 9.691406 19.210938 9.777344 19.265625 C 9.859375 19.320312 9.882812 19.433594 9.828125 19.515625 L 9.039062 20.703125 C 8.984375 20.785156 8.871094 20.808594 8.789062 20.753906 Z M 8.789062 20.753906 "/>
<path style=" stroke:none;fill-rule:nonzero;fill:rgb(12.941176%,12.941176%,12.941176%);fill-opacity:1;" d="M 8.878906 21.972656 C 8.835938 21.972656 8.796875 21.9375 8.796875 21.894531 L 8.785156 20.589844 C 8.785156 20.546875 8.820312 20.507812 8.863281 20.507812 C 8.90625 20.507812 8.945312 20.542969 8.945312 20.589844 L 8.957031 21.890625 C 8.960938 21.9375 8.921875 21.972656 8.878906 21.972656 Z M 8.878906 21.972656 "/>
<path style=" stroke:none;fill-rule:nonzero;fill:rgb(12.941176%,12.941176%,12.941176%);fill-opacity:1;" d="M 8.914062 16.667969 C 8.914062 16.867188 9.078125 17.027344 9.277344 17.027344 L 11.445312 17.027344 C 11.644531 17.027344 11.804688 16.867188 11.804688 16.667969 C 11.804688 16.46875 11.644531 16.304688 11.445312 16.304688 L 9.277344 16.304688 C 9.078125 16.304688 8.914062 16.46875 8.914062 16.667969 Z M 8.914062 16.667969 "/>
<path style=" stroke:none;fill-rule:nonzero;fill:rgb(12.941176%,12.941176%,12.941176%);fill-opacity:1;" d="M 7.5625 16.210938 C 7.535156 16.308594 7.59375 16.40625 7.6875 16.433594 L 9.0625 16.808594 C 9.160156 16.835938 9.257812 16.777344 9.285156 16.683594 C 9.3125 16.585938 9.253906 16.488281 9.160156 16.460938 L 7.785156 16.085938 C 7.6875 16.058594 7.589844 16.113281 7.5625 16.210938 Z M 7.5625 16.210938 "/>
<path style=" stroke:none;fill-rule:nonzero;fill:rgb(12.941176%,12.941176%,12.941176%);fill-opacity:1;" d="M 6.828125 15.234375 C 6.796875 15.261719 6.792969 15.3125 6.820312 15.347656 L 7.667969 16.339844 C 7.695312 16.371094 7.746094 16.375 7.78125 16.347656 C 7.8125 16.316406 7.816406 16.265625 7.789062 16.234375 L 6.941406 15.242188 C 6.914062 15.207031 6.863281 15.203125 6.828125 15.234375 Z M 6.828125 15.234375 "/>
<path style=" stroke:none;fill-rule:nonzero;fill:rgb(12.941176%,12.941176%,12.941176%);fill-opacity:1;" d="M 9.300781 13.585938 C 9.21875 13.765625 9.296875 13.980469 9.480469 14.066406 L 11.449219 14.96875 C 11.628906 15.054688 11.84375 14.972656 11.929688 14.792969 C 12.011719 14.613281 11.933594 14.398438 11.75 14.3125 L 9.78125 13.410156 C 9.601562 13.324219 9.386719 13.40625 9.300781 13.585938 Z M 9.300781 13.585938 "/>
<path style=" stroke:none;fill-rule:nonzero;fill:rgb(12.941176%,12.941176%,12.941176%);fill-opacity:1;" d="M 8.261719 12.605469 C 8.199219 12.683594 8.210938 12.796875 8.285156 12.859375 L 9.378906 13.777344 C 9.453125 13.839844 9.566406 13.832031 9.632812 13.753906 C 9.695312 13.675781 9.6875 13.5625 9.609375 13.5 L 8.519531 12.582031 C 8.441406 12.519531 8.328125 12.53125 8.261719 12.605469 Z M 8.261719 12.605469 "/>
<path style=" stroke:none;fill-rule:nonzero;fill:rgb(12.941176%,12.941176%,12.941176%);fill-opacity:1;" d="M 8.003906 11.410156 C 7.964844 11.421875 7.9375 11.46875 7.949219 11.511719 L 8.304688 12.765625 C 8.316406 12.808594 8.363281 12.832031 8.40625 12.820312 C 8.449219 12.808594 8.472656 12.765625 8.460938 12.722656 L 8.105469 11.464844 C 8.09375 11.421875 8.046875 11.398438 8.003906 11.410156 Z M 8.003906 11.410156 "/>
<path style=" stroke:none;fill-rule:nonzero;fill:rgb(12.941176%,12.941176%,12.941176%);fill-opacity:1;" d="M 20.597656 19.550781 C 20.683594 19.371094 20.609375 19.152344 20.429688 19.066406 L 18.476562 18.125 C 18.296875 18.035156 18.082031 18.113281 17.996094 18.292969 C 17.910156 18.472656 17.984375 18.6875 18.164062 18.773438 L 20.113281 19.71875 C 20.292969 19.804688 20.511719 19.730469 20.597656 19.550781 Z M 20.597656 19.550781 "/>
<path style=" stroke:none;fill-rule:nonzero;fill:rgb(12.941176%,12.941176%,12.941176%);fill-opacity:1;" d="M 21.230469 20.753906 C 21.3125 20.699219 21.335938 20.585938 21.28125 20.503906 L 20.492188 19.316406 C 20.4375 19.234375 20.328125 19.210938 20.242188 19.265625 C 20.160156 19.320312 20.136719 19.433594 20.191406 19.515625 L 20.980469 20.703125 C 21.035156 20.785156 21.148438 20.808594 21.230469 20.753906 Z M 21.230469 20.753906 "/>
<path style=" stroke:none;fill-rule:nonzero;fill:rgb(12.941176%,12.941176%,12.941176%);fill-opacity:1;" d="M 21.140625 21.972656 C 21.183594 21.972656 21.222656 21.9375 21.222656 21.894531 L 21.234375 20.589844 C 21.234375 20.546875 21.199219 20.507812 21.15625 20.507812 C 21.113281 20.507812 21.074219 20.542969 21.074219 20.589844 L 21.0625 21.890625 C 21.058594 21.9375 21.097656 21.972656 21.140625 21.972656 Z M 21.140625 21.972656 "/>
<path style=" stroke:none;fill-rule:nonzero;fill:rgb(12.941176%,12.941176%,12.941176%);fill-opacity:1;" d="M 21.105469 16.667969 C 21.105469 16.867188 20.941406 17.027344 20.742188 17.027344 L 18.574219 17.027344 C 18.375 17.027344 18.214844 16.867188 18.214844 16.667969 C 18.214844 16.46875 18.375 16.304688 18.574219 16.304688 L 20.742188 16.304688 C 20.941406 16.304688 21.105469 16.46875 21.105469 16.667969 Z M 21.105469 16.667969 "/>
<path style=" stroke:none;fill-rule:nonzero;fill:rgb(12.941176%,12.941176%,12.941176%);fill-opacity:1;" d="M 22.457031 16.210938 C 22.484375 16.308594 22.425781 16.40625 22.332031 16.433594 L 20.957031 16.808594 C 20.859375 16.835938 20.761719 16.777344 20.734375 16.683594 C 20.707031 16.585938 20.765625 16.488281 20.859375 16.460938 L 22.234375 16.085938 C 22.332031 16.058594 22.429688 16.113281 22.457031 16.210938 Z M 22.457031 16.210938 "/>
<path style=" stroke:none;fill-rule:nonzero;fill:rgb(12.941176%,12.941176%,12.941176%);fill-opacity:1;" d="M 23.191406 15.234375 C 23.222656 15.261719 23.226562 15.3125 23.199219 15.347656 L 22.351562 16.339844 C 22.324219 16.371094 22.273438 16.375 22.238281 16.347656 C 22.207031 16.316406 22.203125 16.265625 22.230469 16.234375 L 23.078125 15.242188 C 23.105469 15.207031 23.15625 15.203125 23.191406 15.234375 Z M 23.191406 15.234375 "/>
<path style=" stroke:none;fill-rule:nonzero;fill:rgb(12.941176%,12.941176%,12.941176%);fill-opacity:1;" d="M 20.71875 13.585938 C 20.800781 13.765625 20.722656 13.980469 20.539062 14.066406 L 18.570312 14.96875 C 18.390625 15.054688 18.175781 14.972656 18.089844 14.792969 C 18.007812 14.613281 18.085938 14.398438 18.269531 14.3125 L 20.238281 13.410156 C 20.417969 13.324219 20.632812 13.40625 20.71875 13.585938 Z M 20.71875 13.585938 "/>
<path style=" stroke:none;fill-rule:nonzero;fill:rgb(12.941176%,12.941176%,12.941176%);fill-opacity:1;" d="M 21.757812 12.605469 C 21.820312 12.683594 21.808594 12.796875 21.734375 12.859375 L 20.640625 13.777344 C 20.566406 13.839844 20.453125 13.832031 20.386719 13.753906 C 20.324219 13.675781 20.332031 13.5625 20.410156 13.5 L 21.5 12.582031 C 21.578125 12.519531 21.691406 12.53125 21.757812 12.605469 Z M 21.757812 12.605469 "/>
<path style=" stroke:none;fill-rule:nonzero;fill:rgb(12.941176%,12.941176%,12.941176%);fill-opacity:1;" d="M 22.015625 11.410156 C 22.054688 11.421875 22.082031 11.46875 22.070312 11.511719 L 21.714844 12.765625 C 21.703125 12.808594 21.65625 12.832031 21.613281 12.820312 C 21.570312 12.808594 21.546875 12.765625 21.558594 12.722656 L 21.914062 11.464844 C 21.925781 11.421875 21.972656 11.398438 22.015625 11.410156 Z M 22.015625 11.410156 "/>
<path style=" stroke:none;fill-rule:nonzero;fill:rgb(10.196078%,9.803922%,9.803922%);fill-opacity:1;" d="M 16.046875 10.480469 C 16.441406 10.640625 16.695312 10.90625 16.839844 11.246094 C 16.996094 11.601562 17.023438 12.039062 16.972656 12.527344 L 16.957031 12.679688 L 13.0625 12.679688 L 13.046875 12.527344 C 12.996094 12.039062 13.023438 11.601562 13.179688 11.246094 C 13.324219 10.90625 13.578125 10.640625 13.972656 10.480469 C 13.976562 10.230469 14.082031 10.003906 14.242188 9.832031 C 14.410156 9.660156 14.636719 9.542969 14.890625 9.515625 C 14.933594 9.511719 14.972656 9.507812 15.007812 9.507812 C 15.046875 9.507812 15.085938 9.511719 15.128906 9.515625 C 15.382812 9.542969 15.609375 9.660156 15.777344 9.832031 C 15.9375 10.003906 16.042969 10.230469 16.046875 10.480469 Z M 16.046875 10.480469 "/>
<path style=" stroke:none;fill-rule:nonzero;fill:rgb(12.941176%,12.941176%,12.941176%);fill-opacity:1;" d="M 16.929688 12.675781 C 17.519531 12.921875 18.015625 13.28125 18.359375 13.710938 C 18.703125 14.136719 18.898438 14.636719 18.898438 15.167969 C 18.898438 16.097656 18.628906 18.375 17.699219 19.988281 C 17.105469 21.019531 16.242188 21.785156 15.007812 21.785156 C 11.847656 21.785156 11.121094 16.691406 11.121094 15.167969 C 11.121094 14.636719 11.316406 14.136719 11.660156 13.710938 C 12.007812 13.277344 12.503906 12.917969 13.101562 12.671875 C 13.121094 12.664062 13.144531 12.660156 13.164062 12.660156 L 13.164062 12.65625 L 16.855469 12.65625 C 16.882812 12.65625 16.90625 12.664062 16.929688 12.675781 Z M 16.929688 12.675781 "/>
<path style=" stroke:none;fill-rule:nonzero;fill:rgb(99.215686%,35.686275%,0%);fill-opacity:1;" d="M 16.929688 12.675781 C 17.519531 12.921875 18.015625 13.28125 18.359375 13.710938 C 18.519531 13.910156 18.648438 14.125 18.738281 14.355469 C 18.75 14.386719 18.757812 14.421875 18.765625 14.460938 C 18.816406 14.667969 18.859375 14.886719 18.898438 15.117188 C 18.898438 15.132812 18.898438 15.148438 18.898438 15.167969 C 18.898438 16.097656 18.628906 18.375 17.699219 19.988281 C 17.539062 20.269531 17.355469 20.527344 17.15625 20.757812 C 16.582031 20.34375 16.089844 19.695312 15.71875 18.945312 C 15.359375 18.214844 15.113281 17.382812 15.019531 16.570312 C 14.921875 15.746094 14.980469 14.933594 15.234375 14.253906 C 15.503906 13.527344 15.992188 12.949219 16.746094 12.660156 L 16.746094 12.65625 L 16.855469 12.65625 C 16.882812 12.65625 16.90625 12.664062 16.929688 12.675781 Z M 16.929688 12.675781 "/>
<path style=" stroke:none;fill-rule:nonzero;fill:rgb(99.215686%,35.686275%,0%);fill-opacity:1;" d="M 12.839844 20.722656 C 11.488281 19.144531 11.121094 16.253906 11.121094 15.167969 C 11.121094 14.636719 11.316406 14.136719 11.660156 13.710938 C 12.007812 13.277344 12.503906 12.917969 13.101562 12.671875 C 13.121094 12.664062 13.144531 12.660156 13.164062 12.660156 L 13.164062 12.65625 L 13.203125 12.65625 L 13.203125 12.660156 C 13.957031 12.949219 14.445312 13.527344 14.714844 14.253906 C 14.96875 14.933594 15.027344 15.746094 14.929688 16.570312 C 14.835938 17.382812 14.589844 18.214844 14.230469 18.945312 C 13.867188 19.675781 13.390625 20.308594 12.839844 20.722656 Z M 12.839844 20.722656 "/>
<path style="fill-rule:evenodd;fill:rgb(45.882353%,45.882353%,45.882353%);fill-opacity:1;stroke-width:0.00333465;stroke-linecap:round;stroke-linejoin:round;stroke:rgb(12.941176%,12.941176%,12.941176%);stroke-opacity:1;stroke-miterlimit:4;" d="M 3.270758 2.568993 C 3.270758 2.603637 3.242332 2.632063 3.207688 2.632063 C 3.173932 2.632063 3.145506 2.603637 3.145506 2.568993 C 3.145506 2.534349 3.173932 2.506811 3.207688 2.506811 C 3.242332 2.506811 3.270758 2.534349 3.270758 2.568993 Z M 3.270758 2.568993 " transform="matrix(4.397394,0,0,4.397394,0,0)"/>
<path style="fill-rule:evenodd;fill:rgb(45.882353%,45.882353%,45.882353%);fill-opacity:1;stroke-width:0.00333465;stroke-linecap:round;stroke-linejoin:round;stroke:rgb(12.941176%,12.941176%,12.941176%);stroke-opacity:1;stroke-miterlimit:4;" d="M 3.681157 2.568993 C 3.681157 2.603637 3.652731 2.632063 3.618976 2.632063 C 3.584332 2.632063 3.555906 2.603637 3.555906 2.568993 C 3.555906 2.534349 3.584332 2.506811 3.618976 2.506811 C 3.652731 2.506811 3.681157 2.534349 3.681157 2.568993 Z M 3.681157 2.568993 " transform="matrix(4.397394,0,0,4.397394,0,0)"/>
<path style=" stroke:none;fill-rule:nonzero;fill:rgb(12.941176%,12.941176%,12.941176%);fill-opacity:1;" d="M 14.425781 9.765625 L 13.796875 9.046875 L 13.878906 9.082031 L 12.980469 9.125 L 12.941406 9.128906 L 12.902344 9.089844 L 12.105469 8.351562 L 12.480469 8.046875 L 13.050781 8.964844 L 12.972656 8.929688 L 13.867188 8.886719 L 13.914062 8.882812 L 13.945312 8.917969 L 14.574219 9.636719 Z M 14.425781 9.765625 "/>
<path style=" stroke:none;fill-rule:nonzero;fill:rgb(12.941176%,12.941176%,12.941176%);fill-opacity:1;" d="M 15.445312 9.636719 L 16.074219 8.917969 L 16.105469 8.882812 L 16.152344 8.886719 L 17.046875 8.929688 L 16.96875 8.964844 L 17.539062 8.046875 L 17.914062 8.351562 L 17.117188 9.089844 L 17.078125 9.128906 L 17.039062 9.125 L 16.140625 9.082031 L 16.222656 9.046875 L 15.59375 9.765625 Z M 15.445312 9.636719 "/>
<path style=" stroke:none;fill-rule:nonzero;fill:rgb(12.941176%,12.941176%,12.941176%);fill-opacity:1;" d="M 12.363281 14.070312 C 12.363281 14.332031 12.574219 14.542969 12.835938 14.542969 C 13.097656 14.542969 13.308594 14.332031 13.308594 14.070312 C 13.308594 13.808594 13.097656 13.597656 12.835938 13.597656 C 12.574219 13.597656 12.363281 13.808594 12.363281 14.070312 Z M 12.363281 14.070312 "/>
<path style=" stroke:none;fill-rule:nonzero;fill:rgb(12.941176%,12.941176%,12.941176%);fill-opacity:1;" d="M 17.476562 14.070312 C 17.476562 14.332031 17.265625 14.542969 17.003906 14.542969 C 16.742188 14.542969 16.527344 14.332031 16.527344 14.070312 C 16.527344 13.808594 16.742188 13.597656 17.003906 13.597656 C 17.265625 13.597656 17.476562 13.808594 17.476562 14.070312 Z M 17.476562 14.070312 "/>
<path style=" stroke:none;fill-rule:nonzero;fill:rgb(12.941176%,12.941176%,12.941176%);fill-opacity:1;" d="M 11.703125 15.933594 C 11.703125 16.195312 11.914062 16.40625 12.175781 16.40625 C 12.4375 16.40625 12.648438 16.195312 12.648438 15.933594 C 12.648438 15.671875 12.4375 15.460938 12.175781 15.460938 C 11.914062 15.460938 11.703125 15.671875 11.703125 15.933594 Z M 11.703125 15.933594 "/>
<path style=" stroke:none;fill-rule:nonzero;fill:rgb(12.941176%,12.941176%,12.941176%);fill-opacity:1;" d="M 18.136719 15.933594 C 18.136719 16.195312 17.925781 16.40625 17.664062 16.40625 C 17.402344 16.40625 17.1875 16.195312 17.1875 15.933594 C 17.1875 15.671875 17.402344 15.460938 17.664062 15.460938 C 17.925781 15.460938 18.136719 15.671875 18.136719 15.933594 Z M 18.136719 15.933594 "/>
<path style=" stroke:none;fill-rule:nonzero;fill:rgb(12.941176%,12.941176%,12.941176%);fill-opacity:1;" d="M 13.332031 15.53125 C 13.332031 15.792969 13.546875 16.003906 13.808594 16.003906 C 14.066406 16.003906 14.28125 15.792969 14.28125 15.53125 C 14.28125 15.269531 14.066406 15.054688 13.808594 15.054688 C 13.546875 15.054688 13.332031 15.269531 13.332031 15.53125 Z M 13.332031 15.53125 "/>
<path style=" stroke:none;fill-rule:nonzero;fill:rgb(12.941176%,12.941176%,12.941176%);fill-opacity:1;" d="M 16.503906 15.53125 C 16.503906 15.792969 16.292969 16.003906 16.03125 16.003906 C 15.769531 16.003906 15.558594 15.792969 15.558594 15.53125 C 15.558594 15.269531 15.769531 15.054688 16.03125 15.054688 C 16.292969 15.054688 16.503906 15.269531 16.503906 15.53125 Z M 16.503906 15.53125 "/>
<path style=" stroke:none;fill-rule:nonzero;fill:rgb(12.941176%,12.941176%,12.941176%);fill-opacity:1;" d="M 13.089844 17.253906 C 13.089844 17.515625 13.300781 17.726562 13.5625 17.726562 C 13.824219 17.726562 14.035156 17.515625 14.035156 17.253906 C 14.035156 16.992188 13.824219 16.78125 13.5625 16.78125 C 13.300781 16.78125 13.089844 16.992188 13.089844 17.253906 Z M 13.089844 17.253906 "/>
<path style=" stroke:none;fill-rule:nonzero;fill:rgb(12.941176%,12.941176%,12.941176%);fill-opacity:1;" d="M 16.75 17.253906 C 16.75 17.515625 16.539062 17.726562 16.277344 17.726562 C 16.015625 17.726562 15.800781 17.515625 15.800781 17.253906 C 15.800781 16.992188 16.015625 16.78125 16.277344 16.78125 C 16.539062 16.78125 16.75 16.992188 16.75 17.253906 Z M 16.75 17.253906 "/>
<path style=" stroke:none;fill-rule:nonzero;fill:rgb(12.941176%,12.941176%,12.941176%);fill-opacity:1;" d="M 12.515625 18.839844 C 12.515625 19.101562 12.726562 19.3125 12.988281 19.3125 C 13.25 19.3125 13.464844 19.101562 13.464844 18.839844 C 13.464844 18.578125 13.25 18.363281 12.988281 18.363281 C 12.726562 18.363281 12.515625 18.578125 12.515625 18.839844 Z M 12.515625 18.839844 "/>
<path style=" stroke:none;fill-rule:nonzero;fill:rgb(12.941176%,12.941176%,12.941176%);fill-opacity:1;" d="M 17.320312 18.839844 C 17.320312 19.101562 17.109375 19.3125 16.847656 19.3125 C 16.585938 19.3125 16.375 19.101562 16.375 18.839844 C 16.375 18.578125 16.585938 18.363281 16.847656 18.363281 C 17.109375 18.363281 17.320312 18.578125 17.320312 18.839844 Z M 17.320312 18.839844 "/>
</g>
</svg>